/* XPM */
static char *result[] = {
/* columns rows colors chars-per-pixel */
"32 32 180 2 ",
"   c #4E0000",
".  c #490E03",
"X  c #540101",
"o  c #580001",
"O  c #541704",
"+  c #640100",
"@  c #6B0200",
"#  c #670F03",
"$  c #720202",
"%  c #7C0404",
"&  c #7E0C07",
"*  c #611F08",
"=  c #6C1908",
"-  c #5C2207",
";  c #583E0F",
":  c #5F2119",
">  c #583E12",
",  c #652E0D",
"<  c #6D2D0E",
"1  c #753E0F",
"2  c #692D1A",
"3  c #6F3610",
"4  c #6F4214",
"5  c #7D4010",
"6  c #764A18",
"7  c #7E591C",
"8  c #830301",
"9  c #8C0202",
"0  c #960000",
"q  c #9B0202",
"w  c #9A0904",
"e  c #871407",
"r  c #971009",
"t  c #821515",
"y  c #841C1A",
"u  c #8B1F1F",
"i  c #971111",
"p  c #9B1210",
"a  c #A30201",
"s  c #AD0706",
"d  c #A70B0B",
"f  c #AA0B0B",
"g  c #B10706",
"h  c #B30B0B",
"j  c #BB0E0E",
"k  c #BE100F",
"l  c #A81711",
"z  c #B31515",
"x  c #802A10",
"c  c #983819",
"v  c #A8341E",
"b  c #832525",
"n  c #802A2A",
"m  c #972727",
"M  c #962C2C",
"N  c #992D2D",
"B  c #8D3F3F",
"V  c #A12B2B",
"C  c #AA2D2D",
"Z  c #AE3030",
"A  c #B63636",
"S  c #C10F0F",
"D  c #C7100F",
"F  c #C61313",
"G  c #CB1414",
"H  c #C41B1A",
"J  c #CE1919",
"K  c #D21616",
"L  c #D51D1D",
"P  c #DA1A1A",
"I  c #E11D1D",
"U  c #C02721",
"Y  c #CF2624",
"T  c #D62524",
"R  c #C53333",
"E  c #C53A3A",
"W  c #D73B3B",
"Q  c #E42424",
"!  c #EB2121",
"~  c #F52626",
"^  c #FA2727",
"/  c #974C1D",
"(  c #84551B",
")  c #8A571E",
"_  c #925F1E",
"`  c #82681B",
"'  c #99761F",
"]  c #BD463A",
"[  c #8E6521",
"{  c #936A22",
"}  c #96602C",
"|  c #8B7327",
" . c #9C7827",
".. c #9E752D",
"X. c #92623F",
"o. c #A27923",
"O. c #A57329",
"+. c #A97D29",
"@. c #A77830",
"#. c #8B5346",
"$. c #B34040",
"%. c #A45651",
"&. c #936242",
"*. c #9A6840",
"=. c #AC665D",
"-. c #AE6C63",
";. c #B87469",
":. c #C74545",
">. c #CB4A4A",
",. c #D04949",
"<. c #C65252",
"1. c #DB5352",
"2. c #D55C5B",
"3. c #E75756",
"4. c #DB6363",
"5. c #DE716F",
"6. c #D97776",
"7. c #E16F6F",
"8. c #F16666",
"9. c #EA7575",
"0. c #E97878",
"q. c #A7812B",
"w. c #B2822D",
"e. c #B8872E",
"r. c #BD8D2F",
"t. c #B09127",
"y. c #BA922B",
"u. c #BD9B2D",
"i. c #A68330",
"p. c #BA8E33",
"a. c #B59632",
"s. c #C2982F",
"d. c #C28E31",
"f. c #C49431",
"g. c #CD9634",
"h. c #C39A36",
"j. c #CF9934",
"k. c #D29D34",
"l. c #D09F3E",
"z. c #CCA431",
"x. c #CEA637",
"c. c #D4A235",
"v. c #DAA636",
"b. c #D3AF31",
"n. c #DCAB36",
"m. c #D2A33D",
"M. c #D7A93D",
"N. c #DDAC39",
"B. c #D7B434",
"V. c #DDB335",
"C. c #DDB13C",
"Z. c #E0AF37",
"A. c #E0AE38",
"S. c #E0B336",
"D. c #E2BC35",
"F. c #E0B63C",
"G. c #E1BD3C",
"H. c #E6C135",
"J. c #E4C33D",
"K. c #D2A541",
"L. c #DBAF41",
"P. c #CCB94F",
"I. c #DCB141",
"U. c #DABF4B",
"Y. c #D5BF50",
"T. c #E0B640",
"R. c #E1BE40",
"E. c #E3C340",
"W. c #E1C349",
"Q. c #E4CD4E",
"!. c #E0C657",
"~. c #E3CC54",
"^. c #E1CE5C",
"/. c #E4D256",
"(. c #E3D25E",
"). c #E1D060",
"_. c #D88480",
"`. c #F58585",
"'. c #F08A88",
"]. c #F88888",
/* pixels */
"T.E./.E.J.~.I.c.k.c.J.H.H.H.H.N.v.S.H.H.H.D.n.g.g.g.k.k.k.j.k.l.",
"~.J.C.N.C.M.C.D.J.J.Q.J.H.H.C.z. .u.H.H.D.n.k.g.k.n.n.D.D.D.D.!.",
"L.c.c.k.c.n.D.J.~.J.C.N.c.M.U.| : } z.n.k.k.k.B.D.H.H.D.H.D.D.I.",
"k.k.n.D.D.D.H.D.M.c.x.k.n.C.a.; y ] ..g.g.c.V.H.D.D.D.S.n.k.k.k.",
"D.D.H.D.V.v.k.k.g.g.c.n.D.B.' O b 1.&.f.v.n.V.H.n.c.c.c.k.c.n.n.",
"D.D.D.n.k.j.j.k.c.n.D.H.J.z.1 @ u 8.-.@.c.v.c.v.c.n.V.D.D.D.D.D.",
"k.c.c.k.k.k.n.D.V.H.H.E.Y.i.e $ t 3.6.X.p.c.n.V.D.D.D.D.D.D.n.n.",
"k.n.n.N.C.D.H.D.V.C.N.m.p.3 q $ 8 Y 5.=.q.V.D.D.n.k.c.c.c.c.k.c.",
"J.H.H.J.~.J.D.D.D.A.k.g._ 8 q $ b R 2._.&.u.n.c.c.k.n.D.H.H.H.D.",
"~.J.H.H.F.A.A.k.k.A.v.s.1 0 a $ n >.4.0.-. .c.C.D.D.H.H.H.V.H.V.",
"R.H.H.S.v.j.g.g.v.Z.v.{ % a h $ n 1.>.<._.*.z.J.~.J.V.D.n.c.c.c.",
"D.D.D.n.j.g.k.v.v.Z.d.3 a s G % & W E 4.'.;.a.V.C.c.j.c.k.k.v.n.",
"A.n.k.g.g.j.v.A.A.k.[ r G h G % n 3.,.0.].6.&.h.k.k.c.n.D.D.D.S.",
"j.j.g.k.k.v.S.A.v.w.< f Q I K & #.9.2.9.7.5.%.@.v.C.C.H.H.D.D.n.",
"g.j.k.n.G.H.D.S.g.( 8 s P ~ K $ B 9.:.A f >.6.*.B.E.Q.G.n.k.j.j.",
"k.n.G.J./.J.D.k.d.1 q J ! G & o B `.2.E :.9.].#.P.J.N.k.j.g.g.k.",
"J.E.~.G.N.N.k.k.z.( H J F L d 9 Z <.b C m N C 2 h.k.g.g.g.k.I.U.",
"^.G.C.k.g.j.k.V.V.q.z k K P h a V $.o 0 8 % @ 6 f.k.K.K.I.W.(./.",
"L.c.k.g.k.k.n.S.V.f.5 d K S a f M $.  @ 0 + * q.v.G.~.^.(.).(.W.",
"k.k.k.n.N.G.H.H.D.c.{ e D g h L M $.  + q o ` b.G.H.J.E.R.I.m.k.",
"n.D.D.D.G.~.J.H.V.A.z.4 D h J T M $.  + 8 - t.n.n.n.k.k.k.k.k.n.",
"V.n.v.k.k.v.S.H.D.D.c.7 w k ! Q M $.  + + > u.B.k.j.j.k.k.n.S.V.",
"c.k.k.k.v.n.D.D.S.v.k.O.= F ~ Q m A   + # 7 h.j.g.g.c.V.V.V.n.c.",
"I.C.D.D.D.D.D.Z.n.k.g.f._ H ^ Q i z   + 3 @.g.g.g.k.j.c.c.c.m.m.",
").^.J.D.D.A.n.A.v.A.Z.S.y.v ! Q i h X . ( f.k.k.v.N.I.G.J.E.~.).",
"T.L.N.k.k.k.k.v.A.D.D.D.z./ Y Q r j % , y.S.D.D.H.J.~.(.~.J.G.W.",
"j.j.k.j.k.v.A.Z.Z.S.A.v.j.O.v T i S 8 ' V.H.D.D.D.D.I.L.K.c.k.k.",
"j.k.v.A.D.D.D.D.D.S.k.k.j.r.) U i j < u.n.n.k.j.k.k.g.g.g.g.j.g.",
"D.D.D.D.D.A.k.k.k.k.g.k.V.D.t.c p l { f.j.j.g.g.g.g.g.j.g.c.V.H.",
"H.D.D.Z.k.k.k.v.n.n.A.v.n.D.b.o.x / w.g.g.g.g.j.g.j.k.v.n.D.H.H.",
"k.k.k.k.v.Z.A.A.D.D.S.v.c.c.n.c.+.e.j.k.k.c.n.A.v.v.n.D.D.D.D.n.",
"g.g.g.n.D.H.H.D.n.c.j.k.n.D.H.G.v.v.N.D.D.D.D.H.D.A.A.n.n.c.k.j."
};
