/* XPM */
static char * exit_xpm[] = {
"32 32 613 2",
"  	c #E0B640",
". 	c #E5C641",
"+ 	c #E4D256",
"@ 	c #E5C53F",
"# 	c #E5C43F",
"$ 	c #E1C957",
"% 	c #DCB042",
"& 	c #D29E35",
"* 	c #D09A34",
"= 	c #D19832",
"- 	c #DFAF34",
"; 	c #E4B733",
"> 	c #E3B733",
", 	c #E2B134",
"' 	c #DDA235",
") 	c #DD9F36",
"! 	c #DEA335",
"~ 	c #E2B333",
"{ 	c #E0B132",
"] 	c #D6A033",
"^ 	c #CE9634",
"/ 	c #CC9434",
"( 	c #CF9834",
"_ 	c #D09B34",
": 	c #D09C34",
"< 	c #D09C36",
"[ 	c #D09F3E",
"} 	c #E2CA57",
"| 	c #E1C03E",
"1 	c #E0BC3C",
"2 	c #DDAF38",
"3 	c #DBAA38",
"4 	c #D7A83D",
"5 	c #DEB038",
"6 	c #E2BB37",
"7 	c #E1BA3C",
"8 	c #D17121",
"9 	c #CD0018",
"0 	c #D80F1F",
"a 	c #D70F1F",
"b 	c #D8111F",
"c 	c #D8141E",
"d 	c #D7151E",
"e 	c #D7141E",
"f 	c #D8101F",
"g 	c #D70E1E",
"h 	c #C80012",
"i 	c #BB4719",
"j 	c #CD9132",
"k 	c #DBA936",
"l 	c #DEAF36",
"m 	c #E1BA35",
"n 	c #E2BC35",
"o 	c #E2BE3C",
"p 	c #E0C657",
"q 	c #DAAE41",
"r 	c #D3A136",
"s 	c #D3A034",
"t 	c #D4A035",
"u 	c #D5A235",
"v 	c #DDAD36",
"w 	c #E4BE35",
"x 	c #E6C63B",
"y 	c #E5C650",
"z 	c #D47526",
"A 	c #D40000",
"B 	c #E20202",
"C 	c #E50202",
"D 	c #E40202",
"E 	c #E30202",
"F 	c #E60202",
"G 	c #E00202",
"H 	c #D00001",
"I 	c #CB3F18",
"J 	c #DBA433",
"K 	c #E2BB35",
"L 	c #E5C035",
"M 	c #E6C135",
"N 	c #E3BD35",
"O 	c #E1BA37",
"P 	c #DDB341",
"Q 	c #D29E34",
"R 	c #D39E34",
"S 	c #DCAC35",
"T 	c #E4BC35",
"U 	c #E2BB36",
"V 	c #DDAA3C",
"W 	c #CC611F",
"X 	c #D00000",
"Y 	c #E20000",
"Z 	c #E00000",
"` 	c #DD0000",
" .	c #DE0000",
"..	c #DB0000",
"+.	c #DC0000",
"@.	c #DF0000",
"#.	c #D90000",
"$.	c #CB0000",
"%.	c #CF4B18",
"&.	c #E3B632",
"*.	c #E3BE35",
"=.	c #E2BA35",
"-.	c #D39F34",
";.	c #D29D34",
">.	c #D29B34",
",.	c #E5C135",
"'.	c #DEAF37",
").	c #CF9A34",
"!.	c #D09232",
"~.	c #CA591D",
"{.	c #E50000",
"].	c #C30000",
"^.	c #A70000",
"/.	c #AC0001",
"(.	c #A90001",
"_.	c #AB0001",
":.	c #AA0002",
"<.	c #AA0001",
"[.	c #AE0001",
"}.	c #C94B17",
"|.	c #DFB032",
"1.	c #DCAC36",
"2.	c #D5A135",
"3.	c #D4A134",
"4.	c #DDAC37",
"5.	c #E2BD35",
"6.	c #E1B935",
"7.	c #DBAB36",
"8.	c #D19A35",
"9.	c #CF9835",
"0.	c #D19C34",
"a.	c #D39932",
"b.	c #CE631E",
"c.	c #CF0000",
"d.	c #BE0000",
"e.	c #B63511",
"f.	c #CB6D1E",
"g.	c #CE6D1F",
"h.	c #CD6B1F",
"i.	c #CB661E",
"j.	c #CA631E",
"k.	c #C85E1F",
"l.	c #C55C1F",
"m.	c #C06B23",
"n.	c #D29E32",
"o.	c #D5A335",
"p.	c #DCAD36",
"q.	c #E3BC36",
"r.	c #E4BC36",
"s.	c #D19D34",
"t.	c #D4A034",
"u.	c #D29C35",
"v.	c #D09934",
"w.	c #DBAC35",
"x.	c #E1B233",
"y.	c #D36F1E",
"z.	c #CD0000",
"A.	c #C50000",
"B.	c #D25B25",
"C.	c #DEAC35",
"D.	c #DDA935",
"E.	c #DBA535",
"F.	c #D69E34",
"G.	c #D49C34",
"H.	c #D49C33",
"I.	c #D59E34",
"J.	c #DBAA35",
"K.	c #E0B835",
"L.	c #E1B835",
"M.	c #D19E34",
"N.	c #DDAC38",
"O.	c #DEB13D",
"P.	c #E2BC37",
"Q.	c #E6C235",
"R.	c #E2AF35",
"S.	c #D2691F",
"T.	c #E10100",
"U.	c #D60000",
"V.	c #C60000",
"W.	c #D04E1E",
"X.	c #D39A33",
"Y.	c #DBA836",
"Z.	c #DDAB37",
"`.	c #E0B736",
" +	c #D29F34",
".+	c #D4A234",
"++	c #D4A334",
"@+	c #D39E35",
"#+	c #E3C23E",
"$+	c #E5C137",
"%+	c #E5C33C",
"&+	c #E3CB54",
"*+	c #E5C33D",
"=+	c #D1691F",
"-+	c #CC0000",
";+	c #D80000",
">+	c #C50001",
",+	c #D5541C",
"'+	c #E1B333",
")+	c #E2B836",
"!+	c #DEAC37",
"~+	c #DDAB36",
"{+	c #D4A135",
"]+	c #E4CF57",
"^+	c #E6C73C",
"/+	c #E7C435",
"(+	c #E5BF37",
"_+	c #E0B53E",
":+	c #DDAD39",
"<+	c #DAA936",
"[+	c #D69C33",
"}+	c #CE641F",
"|+	c #C80000",
"1+	c #C20001",
"2+	c #D7591C",
"3+	c #D5A035",
"4+	c #D6A335",
"5+	c #DDAC36",
"6+	c #E1BD3E",
"7+	c #E3BE37",
"8+	c #E2BB41",
"9+	c #E6C337",
"0+	c #E0B136",
"a+	c #DAA636",
"b+	c #CF9734",
"c+	c #DB9F34",
"d+	c #D0651F",
"e+	c #C30001",
"f+	c #D4511C",
"g+	c #D49A32",
"h+	c #D5A334",
"i+	c #D6A435",
"j+	c #DEAE36",
"k+	c #E1BA36",
"l+	c #E2C03C",
"m+	c #E5C33B",
"n+	c #E4CB51",
"o+	c #E3C03C",
"p+	c #E4BD35",
"q+	c #E5BF35",
"r+	c #DBA937",
"s+	c #CD9534",
"t+	c #D09935",
"u+	c #DFA436",
"v+	c #D06620",
"w+	c #C70000",
"x+	c #D50000",
"y+	c #C20000",
"z+	c #D5521D",
"A+	c #DDA634",
"B+	c #E3BF36",
"C+	c #E5C23B",
"D+	c #E5C136",
"E+	c #E4C33C",
"F+	c #E2CA51",
"G+	c #E2C13E",
"H+	c #DBAF3E",
"I+	c #D29F36",
"J+	c #DAA736",
"K+	c #DCA837",
"L+	c #CE9734",
"M+	c #DAA536",
"N+	c #DEAA38",
"O+	c #DFA536",
"P+	c #D20000",
"Q+	c #BD0003",
"R+	c #CB4F1B",
"S+	c #DE9F2F",
"T+	c #E0AA30",
"U+	c #E0AD38",
"V+	c #DFB549",
"W+	c #DEAA36",
"X+	c #D59D32",
"Y+	c #D09E39",
"Z+	c #D19A34",
"`+	c #E0AE38",
" @	c #D09835",
".@	c #DBAA36",
"+@	c #E0AF37",
"@@	c #DCA135",
"#@	c #C95D1E",
"$@	c #C10000",
"%@	c #D80001",
"&@	c #CE0102",
"*@	c #CC0E0F",
"=@	c #CC201C",
"-@	c #D22920",
";@	c #D02920",
">@	c #D12920",
",@	c #D22721",
"'@	c #C8221C",
")@	c #BA2E10",
"!@	c #C47D2C",
"~@	c #DEB039",
"{@	c #E1BE3D",
"]@	c #DCAA37",
"^@	c #DBAD37",
"/@	c #DFB435",
"(@	c #D39733",
"_@	c #C5581D",
":@	c #CF0101",
"<@	c #D10101",
"[@	c #CF0403",
"}@	c #D20808",
"|@	c #D30709",
"1@	c #D00709",
"2@	c #D20809",
"3@	c #C60506",
"4@	c #C7200A",
"5@	c #CF7C2C",
"6@	c #DBB13F",
"7@	c #E1C040",
"8@	c #E4C43F",
"9@	c #E4CB4E",
"0@	c #E1BE3C",
"a@	c #CF9935",
"b@	c #DCAD37",
"c@	c #E2BD3B",
"d@	c #E5C43D",
"e@	c #E4CE54",
"f@	c #E0B834",
"g@	c #D2A034",
"h@	c #D09332",
"i@	c #C65B1D",
"j@	c #CC0101",
"k@	c #CD0101",
"l@	c #C70101",
"m@	c #CA0101",
"n@	c #C90101",
"o@	c #C80101",
"p@	c #CB0101",
"q@	c #C10100",
"r@	c #C9270A",
"s@	c #DC9535",
"t@	c #E4D15A",
"u@	c #E4D661",
"v@	c #E3D15A",
"w@	c #E2BF3E",
"x@	c #DCAF3C",
"y@	c #D19E36",
"z@	c #E4CC51",
"A@	c #DDB13D",
"B@	c #DBA938",
"C@	c #DCA534",
"D@	c #D06D1E",
"E@	c #BC0000",
"F@	c #D30202",
"G@	c #B70101",
"H@	c #A80000",
"I@	c #AD0002",
"J@	c #A40001",
"K@	c #A80001",
"L@	c #C1270A",
"M@	c #DA912C",
"N@	c #E3C23D",
"O@	c #E1BF3E",
"P@	c #D29E36",
"Q@	c #DBB03F",
"R@	c #E1BF40",
"S@	c #E3CE57",
"T@	c #E1BE3E",
"U@	c #DBAF3D",
"V@	c #CF9934",
"W@	c #D29D35",
"X@	c #DEB335",
"Y@	c #E4B534",
"Z@	c #D1721E",
"`@	c #C60101",
" #	c #B00000",
".#	c #AF2309",
"+#	c #C24E18",
"@#	c #C34F19",
"##	c #C24C18",
"$#	c #C04518",
"%#	c #BF4318",
"&#	c #B64919",
"*#	c #C67F2B",
"=#	c #D19E37",
"-#	c #D0A23F",
";#	c #D2A541",
">#	c #DBB143",
",#	c #E1C249",
"'#	c #E3D25F",
")#	c #E4D55E",
"!#	c #D2A036",
"~#	c #E1B337",
"{#	c #E2AD35",
"]#	c #CD681F",
"^#	c #BA0000",
"/#	c #C50101",
"(#	c #B80001",
"_#	c #CE4E19",
":#	c #D79230",
"<#	c #D18E31",
"[#	c #CF8B30",
"}#	c #CD8830",
"|#	c #CC8830",
"1#	c #CB8830",
"2#	c #CC9332",
"3#	c #E1BD3D",
"4#	c #E1CB56",
"5#	c #E1CE5C",
"6#	c #E3D05D",
"7#	c #E3D15F",
"8#	c #E0CF5F",
"9#	c #E1C448",
"0#	c #DEAF38",
"a#	c #E2BE3B",
"b#	c #E3B434",
"c#	c #B80000",
"d#	c #CF0202",
"e#	c #C00102",
"f#	c #BB0001",
"g#	c #D24E1C",
"h#	c #CF9132",
"i#	c #CC9534",
"j#	c #E5C037",
"k#	c #E3C240",
"l#	c #DBB041",
"m#	c #D2A33D",
"n#	c #DDAE37",
"o#	c #E1BD3C",
"p#	c #E5C43E",
"q#	c #CC671F",
"r#	c #B60000",
"s#	c #C30202",
"t#	c #BF0302",
"u#	c #B90001",
"v#	c #CF481B",
"w#	c #CC8D32",
"x#	c #E1B536",
"y#	c #DEAD37",
"z#	c #D19B34",
"A#	c #E0B535",
"B#	c #DDAE36",
"C#	c #D5A63C",
"D#	c #E0B538",
"E#	c #E5B734",
"F#	c #CF6F1E",
"G#	c #B10001",
"H#	c #BD0302",
"I#	c #B60001",
"J#	c #CE471B",
"K#	c #DCAB36",
"L#	c #E0B536",
"M#	c #E0B735",
"N#	c #D39D35",
"O#	c #E4BD36",
"P#	c #E1AC35",
"Q#	c #CB671F",
"R#	c #AA0000",
"S#	c #BF0403",
"T#	c #B10302",
"U#	c #B40001",
"V#	c #D04B1B",
"W#	c #D09532",
"X#	c #D3A134",
"Y#	c #DDB335",
"Z#	c #D6A235",
"`#	c #DCB035",
" $	c #DEB435",
".$	c #DDB040",
"+$	c #DEB23E",
"@$	c #E1BB37",
"#$	c #E2BE35",
"$$	c #E1B137",
"%$	c #DEA436",
"&$	c #C55F1E",
"*$	c #B20302",
"=$	c #AF0302",
"-$	c #B20001",
";$	c #D7591B",
">$	c #E1B433",
",$	c #E0B037",
"'$	c #D3A336",
")$	c #D2A23C",
"!$	c #CFA03E",
"~$	c #E3CF61",
"{$	c #E3CD5A",
"]$	c #E4C33E",
"^$	c #DFAB38",
"/$	c #C9661F",
"($	c #A30000",
"_$	c #AB0302",
":$	c #AC0302",
"<$	c #E0B133",
"[$	c #DAA537",
"}$	c #D29A35",
"|$	c #DDAC39",
"1$	c #DEB23F",
"2$	c #E3C13E",
"3$	c #E2C23F",
"4$	c #E1CD59",
"5$	c #E1D060",
"6$	c #DDB042",
"7$	c #DDAF40",
"8$	c #DAA938",
"9$	c #D59E36",
"0$	c #DDA838",
"a$	c #E0A636",
"b$	c #CA6C1F",
"c$	c #9B0000",
"d$	c #AD0302",
"e$	c #A10302",
"f$	c #CB4719",
"g$	c #CF8F30",
"h$	c #CF9432",
"i$	c #D29732",
"j$	c #D29832",
"k$	c #D9A134",
"l$	c #DCA634",
"m$	c #DFB133",
"n$	c #E1B934",
"o$	c #E3CB56",
"p$	c #E2C03D",
"q$	c #E2C240",
"r$	c #D09834",
"s$	c #DDAD37",
"t$	c #E1AA35",
"u$	c #CA6A1F",
"v$	c #9A0001",
"w$	c #A40202",
"x$	c #A30303",
"y$	c #AA1011",
"z$	c #C23122",
"A$	c #CA542B",
"B$	c #CB5A2C",
"C$	c #CE632C",
"D$	c #D0672C",
"E$	c #D26B2C",
"F$	c #D26D2C",
"G$	c #CC6F25",
"H$	c #CB8D26",
"I$	c #E1BA38",
"J$	c #DEB341",
"K$	c #DBAF43",
"L$	c #D2A43F",
"M$	c #DEAE37",
"N$	c #C86F1E",
"O$	c #950002",
"P$	c #9B0303",
"Q$	c #A10404",
"R$	c #9E0909",
"S$	c #A71212",
"T$	c #AC1313",
"U$	c #AB1313",
"V$	c #A71313",
"W$	c #A91413",
"X$	c #AD1313",
"Y$	c #A51212",
"Z$	c #AA050B",
"`$	c #C24318",
" %	c #CF9332",
".%	c #D49933",
"+%	c #C05E1E",
"@%	c #900002",
"#%	c #A00504",
"$%	c #960404",
"%%	c #9C0504",
"&%	c #9F0404",
"*%	c #930403",
"=%	c #980404",
"-%	c #9E0504",
";%	c #970403",
">%	c #940404",
",%	c #9E0002",
"'%	c #C63B18",
")%	c #CC8C31",
"!%	c #D29B35",
"~%	c #DDA535",
"{%	c #C5661F",
"]%	c #890001",
"^%	c #930303",
"/%	c #8D0302",
"(%	c #900302",
"_%	c #910302",
":%	c #8C0302",
"<%	c #8E0302",
"[%	c #8D0203",
"}%	c #C73D18",
"|%	c #CF8F32",
"1%	c #E6C335",
"2%	c #D49E35",
"3%	c #E0B137",
"4%	c #E2B535",
"5%	c #C57D23",
"6%	c #A40004",
"7%	c #AB0006",
"8%	c #AC0006",
"9%	c #AA0006",
"0%	c #AC0005",
"a%	c #BC3F16",
"b%	c #D9A234",
"c%	c #DCAB37",
"d%	c #DBA737",
"e%	c #DDAA37",
"f%	c #E3B836",
"g%	c #E4BB35",
"h%	c #CE9732",
"i%	c #C98A30",
"j%	c #CD8D30",
"k%	c #D89E32",
"l%	c #DFB031",
"m%	c #E1B531",
"n%	c #E0B131",
"o%	c #DBA133",
"p%	c #D99D34",
"q%	c #E0B431",
"r%	c #DFB431",
"s%	c #DFB631",
"t%	c #E4BF35",
"u%	c #E5BD36",
"v%	c #D39F35",
"  . + @ # $ % & * = - ; ; > , ' ) ! ~ ; > { ] ^ / ^ ( _ : : < [ ",
"} | 1 2 3 4 5 6 7 8 9 0 0 a b c d e f 0 g h i j & k l m n n o p ",
"q r s t u v w x y z A B C B D D D B E F G H I J K L M L L N O P ",
"Q R S K K T N U V W X Y Z `  .Z ..+.@. .#.$.%.&.L *.=.l k -.;.>.",
"N *.,.w '.k Q ).!.~.X {.` ].^./.(._./.:.<.[.}.|.1.2.3.s R -.k 4.",
"5.5.6.7.8.9.( 0.a.b.c. .+.d.e.f.g.h.i.j.k.l.m.n.o.p.m 5.5.n q.r.",
"s.t.t u.v.Q w.6.x.y.z.@.#.A.B.C.D.E.F.G.H.I.J.6.K.L.n n n 6.l 4.",
"M.k 4.N.O.P.,.Q.R.S.$.T.U.V.W.X.-.2.Y.Z.`.=.N K S -. +.+++.+-.@+",
"#+$+M %+&+*+L *.~ =+-+#.;+>+,+'+N K )+Z.Z.!+~+{+Q -.S K N N N N ",
"]+^+/+(+_+:+<+-.[+}+|+#.U.1+2+'+m l Z.3+t 4+5+5 6+7+,./+,.N n n ",
"8+9+M 0+a+8.b+8.c+d+V.` X e+f+g+h+i+4.j+k+l+$+m+n+o+n m 1.s t.{+",
"p+q+=.r+v.s+t+a+u+v+w+x+A y+z+A+m B+C+D+E+F+G+U H+I+: Q Q R J+K+",
"4.k ;.L+/ t+M+N+O+}+].P+P+Q+R+S+T+U+V+W+X+Y+< _ Z+v.Q S K w r.`+",
" @b+s+( Q .@+@+@@@#@$@%@&@*@=@-@;@>@,@'@)@!@( Q k ~@{@$+L N 6.]@",
"/ b+Q ^@{@$+q+/@(@_@y+:@<@[@}@|@|@1@2@3@4@5@6@7@8@# 9@0@1.-.: a@",
"M.b@c@d@e@d@f@g@h@i@d.j@k@l@m@k@n@o@p@q@r@s@t@u@v@w@x@y@b+s+L+_ ",
"#+# z@w@A@B@Q M.C@D@E@F@l@G@H@I@J@K@/.J@L@M@N@O@H+P@L+s+L+I+Q@R@",
"S@T@U@P@V@b+W@X@Y@Z@E@m@`@ #.#+#@###$#%#&#*#s.: u.=#-#;#>#,#'#)#",
"q !#( b+( Q .@~#{#]#^#l@/#(#_#:#<#[#}#|#1#2#:  +S 3#4#5#6#7#8#9#",
"Z+_ & k 0#a#$+L b#j.c#d#e#f#g#h#/ / / i#s.1.m K p+j##+k#R@l#m#I+",
"n#`.=.m o#F+p#Q.R.q#r#s#t#u#v#w#/ / / s.f@M ,.x#y#k Q _ _ z# +k ",
"A#B#<+Q y@C#D#M E#F#G#H#H#I#J#w#i#_ s p.w L 5.X@W@9.V@0. +K#L#M#",
"t.N#-.s.Q p.O#O#P#Q#R#S#T#U#V#W#X#Y#6.)+j+k s : s+^ Z#`# $L#K# +",
".$+$@$#$N w O#$$%$&$H@*$=$-$;$>$6.,$!+r+z#L+/ / L+( 0..+++'$)$!$",
"~${$]$*.K l Z.^$O+/$($_$:$[.;$<$y#[$}$Z+( _ : Q r+|$1$R@2$3$4$5$",
"6$7$8$Q 0.u.9$0$a$b$c$d$e$K@f$g$h$i$j$k$l$m$n$5.L *+o$6#4#p$G+q$",
"( r$8.t+Q <+s$+@t$u$v$w$x$y$z$A$B$C$D$E$F$G$H$f@n I$J$K$L$y@s.s.",
"_ Q k M$K T =.m ~ N$O$P$Q$R$S$T$U$V$W$X$Y$Z$`$ %: _ ( L+/ s+)._ ",
"N *.q+w K S R Q .%+%@%#%$%$%%%&%*%=%-%;%>%,%'%)%/ / / L+( X#K.N ",
"5.5.6.1.2.u.!%M+~%{%]%^%/%/%(%_%:%<%_%/%[%v$}%|%9.9.!%k B#K 1%M ",
"s.s.s.2%r+4.4.3%4%5%6%7%7%7%7%7%8%7%7%7%9%0%a%b%c%d%e%f%g%n 6.B#",
"/ / L+Y.p+,.,.w l h%i%j%k%l%m%n%o%p%o%l%q%r%s%t%u%+@^$`+5+v%_ ( "};
