/* XPM */
static char *_a4f093a7c2b4a128016e5e6f45306a9ML6uIGAt8PVScSbz[] = {
/* columns rows colors chars-per-pixel */
"64 64 136 2 ",
"   c #060302",
".  c #0B0603",
"X  c #0E0905",
"o  c #0F0D08",
"O  c #120704",
"+  c #1B0603",
"@  c #130B06",
"#  c #1B0C06",
"$  c #150E08",
"%  c #1A0E09",
"&  c #161007",
"*  c #1B1007",
"=  c #16110A",
"-  c #1C130B",
";  c #1E180D",
":  c #1F1910",
">  c #220E06",
",  c #2B0F07",
"<  c #220F09",
"1  c #280F08",
"2  c #231107",
"3  c #2A1106",
"4  c #23140C",
"5  c #2A150C",
"6  c #24190E",
"7  c #2B1A0E",
"8  c #33160D",
"9  c #3A160C",
"0  c #331B0E",
"q  c #3A1C0E",
"w  c #251611",
"e  c #2C1711",
"r  c #241A11",
"t  c #2C1C12",
"y  c #2C1C13",
"u  c #2C1E13",
"i  c #2D1C16",
"p  c #2F1F18",
"a  c #331710",
"s  c #391711",
"d  c #371810",
"f  c #311D13",
"g  c #331D12",
"h  c #361F12",
"j  c #311C14",
"k  c #351C14",
"l  c #371D15",
"z  c #381D12",
"x  c #3A1E13",
"c  c #3D1F12",
"v  c #3D1F13",
"b  c #34200F",
"n  c #3E200F",
"m  c #2D2014",
"M  c #2C2119",
"N  c #322013",
"B  c #342011",
"V  c #322314",
"C  c #342214",
"Z  c #3B2110",
"A  c #3B2214",
"S  c #3D2116",
"D  c #3A2517",
"F  c #3D2415",
"G  c #3C2917",
"H  c #33221B",
"J  c #342318",
"K  c #33241A",
"L  c #372518",
"P  c #3A251A",
"I  c #3D2419",
"U  c #3C241A",
"Y  c #3C271A",
"T  c #3B241D",
"R  c #35281D",
"E  c #3C2B1A",
"W  c #3D2C1D",
"Q  c #352922",
"!  c #3B2E23",
"~  c #3D3123",
"^  c #411C0F",
"/  c #431E13",
"(  c #451E11",
")  c #491F13",
"_  c #412413",
"`  c #402114",
"'  c #432314",
"]  c #422316",
"[  c #4A2314",
"{  c #462915",
"}  c #442719",
"|  c #44251B",
" . c #4C2619",
".. c #442A1B",
"X. c #482918",
"o. c #492A18",
"O. c #4B2A1B",
"+. c #4D291C",
"@. c #492C1F",
"#. c #51251A",
"$. c #522C1D",
"%. c #562F1C",
"&. c #592C1D",
"*. c #47301F",
"=. c #4D331B",
"-. c #54311D",
";. c #5A311E",
":. c #632B1D",
">. c #66311F",
",. c #472A22",
"<. c #462D21",
"1. c #462F20",
"2. c #482B22",
"3. c #4C2F23",
"4. c #492A24",
"5. c #512C21",
"6. c #433021",
"7. c #483022",
"8. c #4B3222",
"9. c #4E3025",
"0. c #4E3225",
"q. c #453428",
"w. c #513322",
"e. c #573425",
"r. c #5B3523",
"t. c #5E3526",
"y. c #513824",
"u. c #5E3824",
"i. c #553B2B",
"p. c #613322",
"a. c #693423",
"s. c #613C27",
"d. c #683D25",
"f. c #693529",
"g. c #623E2D",
"h. c #70402F",
/* pixels */
"< 5 y 6 * * $ X @ # @ O   @ O 6 y 4 0 5 * $ @ $ X # #     4 - * * $ f % X ; r y e.2.y H : 4 j e H y 4 - @ X X % % @   % $ - - @ ",
"@ 2 e @ $ * @ . @ O   > % y $ B 7 2 7 - 6 - % 5 5 5 5 > @ # % X . @ X % 6 5 f g.,.4 r i.w @.0.2.Y l f y Y ` +.5 % X .   X @ X @ ",
"# @           @ @ . - v S B 4 6 %.O.F > 4 - y 6 5 8 4 $ @ . . @   X   X @ B } 0.r r W 1.h t.4.= = j P y 4 +.l % 2 @           O ",
"          X 5 2 @ % X $ h ` 4 z v 6 ( 5 _ J * @ 4 7 % 5 % X O > X .   X X X D y 6 E 7.5 F 1.= r r y Y Z 9 % 4 * * *   .   @ O @ ",
"@ $ - * * = *   X   @ $ % S 5 @ 4 N O.v y = r $ 6 % X # %   @ @     @ @ @ $ A y y J y } } - y r V 6 F $.l - 6 ; @ @   # % 6 e $ ",
"W B y *.y ; & @ X   X $ $ 5 i $ * 6 A q A @ 6 * - 4   . . X   @ X = ; $ 7 f h @.J 6 5 H * - $ = @ $ +.O.$ y 4 $ - -   @ % 4 ; y ",
"4 } r.3.- : 6 - X   . = $ 4 $ * 6 4 f f 5 2 $ $ $ @ . .   . @ $ ; * m $.l - @ @ e 8 q % ; y ; * - $ 2 8 $ = @ $ - 4   @ 7 V y r ",
"A S O.+.1.m r $ .   . @ # 5 $ 6 V F - ..% - @         . 4 i r : : 4 J y 7 X * * % v z $ = 6 4 $ * Z f 4 @ 4 6 6 4 * O   * 4 z @.",
"} $.5.5.@.6.y $ * X . @ > $ * 4 N q [ O.5 # O       @ - z } : r 6 7 h 5 - = r y L > _ $ @ @ $ n r.P h [ [ B =.B @ 2 @   X X $ @.",
"$ P Y ` V A O.% 3 f # > < l 4 q O.r.O.,.l 8 @     @ - = } a.f ; * 6 4 4 2 X B D A z z X $ * _ s.5 y * f O.5 2 # 4 $ O . @ @ $ $ ",
"L J ; } 7 5 z 7 e . X @ $ @.+.v f w * = @ * @ O # @ ; 4 y / } 4 * @ $ 4 l f &.q Z } j . 4 7 r.h 6 y - * y z q 6 $ - # O @ @ * * ",
"y r r m 6 - 7 6 * @ # X - $ 5 9 O.w * * ; - q 9 %   # 5 q s 8 5 $ $ # % % l [ Y - e e @ 8 -.l o - 4 - - $ A F * r 4 6 @     * - ",
"; = ; r - ; 6 8 7 4 $ $ * = 7 +.` y * - r 4 #./ 9 8 1 < # # f 5 # @   . X 5 } @ - @ 2 5 q 5 $ - * $ * ; ; 7 S 4 6 6 - 5     @ - ",
"- 6 f y * y E } e * X ; - ; y ` O.y = - W a.l 2 * X X   . 5 @   .       @ y } 4 @ . X y e @ 4 ; * $ = - - { f y 6 i $ Y X   . X ",
"- y 7 B h f - @   o @ 4 * 4 y } } f 4 7 e >.- ; = - ; 4 @         .   X % f a f 2 @ $ X 4 5 5 J y $ 6 y q S 4 6 y K y e -       ",
"X X 5 _ 4 X $ O X = @ @ $ * % [ P Y 4 z 3 #.* - - - 4 $ $ X   . O   @ % % % @ $ < $ # # 4 l 8 z 7 -.F _ z r m 6 J e J y e @   X ",
". # # 5 1 2 - X @ @ o @ * @ 5 q 5 S _ p.p.2 4 7 - 4 = @ X X       . . @     %   $ 5 2 4 < < < 4 l A w y v e M - y Y w $ % $ @   ",
"  . @ 4 # $ X @ X @ @ X @ @ 4 5 $ 4 - * - 4 b 0 * 6 J q 2 @ @             . . . h @ X X X X # y -   $ y z } 7 f e - X X o = @ . ",
".   @ 4 8 8 5 $   . X X X * F F . @ = 7 4 7 7.4 6 = L 2 @ @ % @   > h @ X   $ % 4   @ X X $ % 4 % 2 y @ * f 5 2 2 @ @ . X   . X ",
".   % - 5 8 5 #     $ X @ X 4 D @ o - & f _ 8 6 * @ X   O 6 @     .  .4 * @     4 X     . $ @ - @ y ; = * * 4 5 @         . @ * ",
"X   y * 5 # @ O @ X X X X $ $ - 4 $ - - - - 4 6 $ $ X X     O .   @ h J r y 6 8 O         X @ % $ * * ; - $ @ 4         @ 4 @ ; ",
"@ $ } ^ 0 - $ @ @ .   X @ $ @ ; y X $ - 6 4 6 6 ; * X @ . O % X   % l J E } @.l ` % 4 * 5   .   @ 6 - = - - $ 4         4 f S * ",
"$ Z l 4 - $ = @ O #       X X @ h   $ 4 4 - - 4 $ @ @ X   @ 4 X X $ y S 3.y % $ * - L r $ X @   $ ; : ; 6 # 7 6 @ @ X X Y f [ ; ",
"7.O.6 - * = ; % # 4 $ X   . . # 4 . @ ; ; - - * @ @ X $ > # 4 - $   6 } H y r = - r r r ; - $   @ * - = ; % 5 $ * - * r y q 0 / ",
"- y - * @   . @ O 8 $ @   . 5 O $ X @ 6 6 * * @ $ @   $ 4 . % X     r ; M M i r ; M y ; - r =     . : * X @ 6 6 6 y r * * q _ [ ",
"3 6 @ .   # 6 % X $ X X @ e % @ 7 X   * - $ $ @       X @ @ $ X .   r m L ! q.R ~ y r 6 - ; =     X y $ . # e 4 $ @ @ > 5 2 Z F ",
"< O   + > #.e 4 %     O e 4   - - - X @ 4 6 @ X       O @ @ $   . % 6 ; y i - R ! ; r ; - * $   X o * % 5 a @         # - 4 4 ` ",
"    @ ( &.d r.e 4 Y . O 2   X * $ $ X . ; = $ .       X @     @ h r.1.3.y 7 7 - m q N * @ * *     X @ # - O . X X . . * X $ % @ ",
"O @ z f.4 ) S * i H f . X @ $ $ @ @ $ @ X   % % X X @ .     % S 7.j ; p r y f e 5 7 8 ` @ 4 @   .   % @       X .   @ @ X X     ",
"6 4 P 1.S } e r : M p y $ % $ $ @ ; $ % - . .       X     . 5 2 % 4 ; M 6 V * 4 4 4 * - ; 4 -   . .       X   . % $ $   X .   . ",
"4 z J y f y 4 y J j S e O @ $ % $ @ X @ $ $ O .         + + Z $ $ L 4 6 6 4 * $ 8 2 @ - $ r 4   $ $                           @ ",
"- 4 A - - r r Y +.;.h.#.5 O $ @ % @     X   O     . @ $ 2 f } @ = V H 4 6 4 * 5 @ @ $ * 4 6 @   @ - - X @             @ $ $     ",
"y * $ 6 6 4 8 p.l j l - * $ 4 -   X & 7 4 * * $ @     $ 4 D J 6.H - 4 - - 5 A 5 7 2 f } * r X . $ = ; 6 * $ % 5 % $ X * 6 4 @ @ ",
". @ $ 4 7 6 B +.4 y V 6 = * 7 ; ; ; 4 6 r r 4 7 4   O h Z O.O.A j } Z ;.[ 5 % 2 4 2 q # 2 4 $ @ @ 6 6 ; * = 4 y _ h $ ; 4 7 $ @ ",
"  % X % * 4 5 +.* 4 6 * - - y 7 - ; A ..r * 6 N 4 & . 4 - @ w S f y q / 4 < # - 4 l 5 l A 2 #   $ y ; ; ; 7 N 7 5 f $ r - $ - $ ",
"  # 2 $ * - # l % $ S } D 5 4 r * O.t.Y J - 0 0 - - @ X * 6 6 A 7 3 > @ $ @ = $ % 6 4 4 $   .   6 - = ; r y 7 G 4 z @ = - $ @ @ ",
". # $ % # 5 5 l - r 6 S O._ - - q u.y D y N A 4 4 @     4 6 r H S v % % * @ * @ - - @ 4 @ X . @ 2 6 * ; 6 ; 6 V y h y - - % . . ",
"% # O 6 - @ @ % = 6 7 6 y $ 4 b d.f r m 6 6 r ; - X     - 4 * - %.4 @ * $   $ @ - $   @ @   @ $ y m y 4 ; = % 7 6 % $ . 4 $ $ # ",
"* @ $ $ .   X @ o @ q 4 - 7 O.;.J $ ; $ * - * ; -       5 f 6 4 e < % X % @ @ % . X     . % . * y y y z 7 L A 6 $ . @ % @ @ @ @ ",
"$ f 2   $ $ 4 = = r * * ; O.+.P - 6 $ @ @ r y - e @     $ - - - r 7 2 @ X @ @ X   X     @ O   * y 4 y y X X $ X . X     @ $ ; * ",
"y y e < < # * - @ ; ..4 4 6 } 5 A y $ @ @ 6 5 ` j X       $ - 6 $ - i 6 6 @ X     X X @ X     = - r V 5 = X @ % @ . $ - 4 7 4 y ",
"6 ; * 2 w.-.v r r 6 J 6 - @ - ` / 7 j 6 - 6 % 8 $ X X     4 V r - $ % 5 % # . .     . .   . @ 6 y ; ..5 - $ @     4 e - 7 y i K ",
"J l J l i Y y 4 J A 4 - 5 5 2 4 5 l 8 $.} 8 v h # X $     @ = % $ 4 % % - O     $ @       X ; ; y 6 ; % 5 f * $     # 7 w % * = ",
"3.v F 4 - - r 4 e L 4 * f 2 @   # # 4 4 @ > # 2 5 < 4 4 @   j e 2 $ 2 > - X . @ $ .     X * - ; * l Y ..J V r 4 $     # ` f y r.",
"$ @ $ f * f 4 4 V y y 7 4 4 .   O % i X $ @ X @ @ 5 5 5 X   . @ X   $ @ X     .     . % l i # &.:./ [ L 6 r - - X $ $ . 2 @ * 4 ",
" .j j } S j 2 4 4 h J B z * - $   @ % @ 4 @   X - 5 S 4 @     X     $ @           X $ l P i *  .8 2 h 6 6 m r r - $ 7 # X   @ h ",
"% $ @ @ . X $ e f A e e J y 6 4 > % . . X @ $ ; 4 7 $.A -       X X O @ O       $ ; 4 2 r - = h @.@.Y C * m y V C - 4 -   .   @ ",
"  X X $ @ @ X $ % @ $ @ - y 6 * 5 8 < . @ ; y 4 V 6 S } 2 % O     $ @ @ .     . $ 4 6 ; ; - 7 J - $ * m } y.w.7 y A y % X @     ",
"      X @ % - % @ X @ @ $ 4 B q $.5 5 # ; 4 4 J r / v ,.e f 3 8       @       @ @ 4 * * * 7 6 = ; * = r 6 r f ; - N 6   * X X   ",
". #     . % 4 % % # @ X @ $ * A 5 4 8 w * 6 - ; 4 $.S S $./ &.8           < @ @ @ * $ - - = 6 6 - * - ; * & * $ * # r X $ X * 2 ",
"  .         . @ @ .   $ $ X 2 h f z f (  .+.v S ` } 7 7 $ * 6 @ X       X O 4 > @ $ 4 0 - $ r r $   @ @ * * - * - $ -   . # y $ ",
"    $ 2 @     @ @ $ O @ % - 5 4 $ * % # 5 l O.S f @ 6 7 X 2 4 @ X   O > 5 # @ # > # f 6 y ; - 6 * . @ * A A = $ $ @ $ $ - j 6 = ",
"    @ - 4 @ @     @ . . @ @ 2 # O @ @ $ - 6 4 [ 7 > 5 6 @ O       @ 2 e 5 % @ - 2 $ $ * % ; = r 4 # 4 0 O.; @ = X X # $ r - = - ",
"    = * B * $ o $     X $   O . . % 6 = $ N B ^ 4 # < X @ .     @ $ ; ; - @ X $ $ @ @ ; * = * 4 2 - 6 - 4 4 - @ @ X @ r Q M = ; ",
".   @ * ; - ; M 6 - o @     .   @ * 4 4 6 2 2 5 # +       . 5 * 4 y 6 P * ; - % $ * 4 * - - y } $   $ 4 $ @.e @ = = - y r K ! K ",
"X X @ = 6 A $ - 4 4 - ; - $ *     - r 4 7 h 5           . 4 e ; ; M y * 4 * #     * 4 - * - 2 - X   % * 5 8 % $ = $ 4 4 w ; r ; ",
"  @ % B O.7 7 Z O.4 = - * 0 2     $ $ 4 [ - @ $ $ @ $ $ . y 6 y 6 - - * @ 5 $.5 X @ * $ @ $ $ X X @ @ @ q 2 X $ , < < 4 $ X M @ ",
"  @ h h z 8 4 6 V 6 * = 6 - -   O 8 B 4 % . X $ $ @ $ $ $ r ; @ @ B O.A z 5 r 6 @ @ O # @ . @   - $   4 5 @ $ @ $ @ $ % . * $ X ",
"@ - - y $ e w.} G 7 6 6 - 2 4 O . $ 4 $ . X     . . $ - = 4 6 - -.$.4 2 $ @ @ @ 5 > O $ @ @ % % @ @ O . . X X @ X   $ $   @     ",
"; - 6 E $ _ h H y h 7 4 2 2 #       $           @ @ @ @ @ - - 4 # O   @ @ @ o @ @ # @ O         O .                   @ e @ @ w ",
"4 y D 4 b [ $ * = 6 6 @   @                   O .     X X $ y y 2 > $ $ - * r 6 5 # @           O > X @               X . @ @ 4 ",
"y } f 0 +.4 6 * 4 @ $ . O   X     X         .       X X X @ @   @ . @ 2 y r i L 6 6 $ @ X . X X $ 7 - r @       X           $ * ",
"e 7 0 S 4 $ * $ $ . # .   .     .     O                   $ X X @ @ 4 J r = 0.M J y 0 * @ @ @ 5 h e $ $ ;               * -.O.D ",
"h 8 5 6 $ $ @ X     @ .       $ - 4 @ @ @     .   . @ $ $ 4 * * $ * 7 e @ L J V J A w.A Z 5 @ 4 j @ X @ *     X X .   O F T Y l "
};
