/* XPM */
static char * p_down_xpm[] = {
"32 32 657 2",
"  	c #E0B640",
". 	c #E5C641",
"+ 	c #E4D256",
"@ 	c #E5C53F",
"# 	c #E5C43F",
"$ 	c #E1C957",
"% 	c #DCB042",
"& 	c #D29E35",
"* 	c #D09C34",
"= 	c #D4A436",
"- 	c #E3C03C",
"; 	c #E5C436",
"> 	c #CAB034",
", 	c #CFB234",
"' 	c #CBAC35",
") 	c #C99F36",
"! 	c #CA9E37",
"~ 	c #B59235",
"{ 	c #B89F34",
"] 	c #C5AB34",
"^ 	c #E3C135",
"/ 	c #E4BD35",
"( 	c #DBA836",
"_ 	c #CE9734",
": 	c #CC9434",
"< 	c #CE9634",
"[ 	c #CF9834",
"} 	c #D09B34",
"| 	c #D09C36",
"1 	c #D09F3E",
"2 	c #E2CA57",
"3 	c #E1C03E",
"4 	c #E0BC3C",
"5 	c #DDAF38",
"6 	c #DBAA38",
"7 	c #D7A83D",
"8 	c #DEB038",
"9 	c #E2BB37",
"0 	c #E2C03E",
"a 	c #DDBE3E",
"b 	c #C9B84B",
"c 	c #BFA93E",
"d 	c #666538",
"e 	c #7A713A",
"f 	c #70683C",
"g 	c #716538",
"h 	c #7E6C36",
"i 	c #183137",
"j 	c #142F39",
"k 	c #535738",
"l 	c #BDA134",
"m 	c #D7A936",
"n 	c #D29B35",
"o 	c #DBA936",
"p 	c #DEAF36",
"q 	c #E1BA35",
"r 	c #E2BC35",
"s 	c #E2BE3C",
"t 	c #E0C657",
"u 	c #DAAE41",
"v 	c #D3A136",
"w 	c #D3A034",
"x 	c #D4A035",
"y 	c #D5A235",
"z 	c #DDAD36",
"A 	c #E4BE35",
"B 	c #E6C63B",
"C 	c #E4CC51",
"D 	c #D0B43D",
"E 	c #726B38",
"F 	c #364443",
"G 	c #173549",
"H 	c #1E394A",
"I 	c #1D3B50",
"J 	c #1D3645",
"K 	c #21343E",
"L 	c #062C48",
"M 	c #062F4E",
"N 	c #14344B",
"O 	c #5F5334",
"P 	c #BF8F34",
"Q 	c #D39E35",
"R 	c #DBAC35",
"S 	c #E2BB35",
"T 	c #E5C035",
"U 	c #E6C135",
"V 	c #E3BD35",
"W 	c #E1BA37",
"X 	c #DDB341",
"Y 	c #D29E34",
"Z 	c #D39E34",
"` 	c #DCAC35",
" .	c #E4BC35",
"..	c #E2BB36",
"+.	c #D9AE3E",
"@.	c #AF8A35",
"#.	c #4E4633",
"$.	c #052A45",
"%.	c #082F4D",
"&.	c #072D4A",
"*.	c #072F4D",
"=.	c #062A46",
"-.	c #093150",
";.	c #082E4B",
">.	c #433E33",
",.	c #AD8733",
"'.	c #DCB535",
").	c #E3BE35",
"!.	c #E2BA35",
"~.	c #D39F34",
"{.	c #D29D34",
"].	c #D29B34",
"^.	c #E5C135",
"/.	c #DEAF37",
"(.	c #CF9A34",
"_.	c #C29034",
":.	c #594E32",
"<.	c #102535",
"[.	c #072B47",
"}.	c #072943",
"|.	c #072944",
"1.	c #062841",
"2.	c #052238",
"3.	c #062740",
"4.	c #072A46",
"5.	c #06243B",
"6.	c #112534",
"7.	c #605732",
"8.	c #CAAA35",
"9.	c #DCAC36",
"0.	c #D5A135",
"a.	c #D4A134",
"b.	c #DDAC37",
"c.	c #E2BD35",
"d.	c #E1B935",
"e.	c #DBAB36",
"f.	c #D19A35",
"g.	c #CF9835",
"h.	c #C39534",
"i.	c #464635",
"j.	c #002A47",
"k.	c #093252",
"l.	c #083353",
"m.	c #072D49",
"n.	c #072A45",
"o.	c #062A45",
"p.	c #082F4C",
"q.	c #052C48",
"r.	c #4B4534",
"s.	c #BA9034",
"t.	c #D5A434",
"u.	c #D5A335",
"v.	c #DCAD36",
"w.	c #E3BC36",
"x.	c #E4BC36",
"y.	c #D19D34",
"z.	c #D4A034",
"A.	c #D29C35",
"B.	c #D09934",
"C.	c #D2AE34",
"D.	c #525235",
"E.	c #022B46",
"F.	c #0A2A41",
"G.	c #09283E",
"H.	c #082C49",
"I.	c #093354",
"J.	c #082D4A",
"K.	c #08263B",
"L.	c #0A283D",
"M.	c #062D48",
"N.	c #504A34",
"O.	c #C39C35",
"P.	c #E0B835",
"Q.	c #E1B835",
"R.	c #D19E34",
"S.	c #DDAC38",
"T.	c #DEB13D",
"U.	c #E2BC37",
"V.	c #E6C235",
"W.	c #DCB136",
"X.	c #A68636",
"Y.	c #454337",
"Z.	c #1B2736",
"`.	c #6E5F54",
" +	c #65564E",
".+	c #0D2539",
"++	c #192A3F",
"@+	c #14273A",
"#+	c #63544C",
"$+	c #736256",
"%+	c #242D38",
"&+	c #404437",
"*+	c #A89134",
"=+	c #DBB735",
"-+	c #D29F34",
";+	c #D4A234",
">+	c #D4A334",
",+	c #E3C23E",
"'+	c #E5C137",
")+	c #E5C33C",
"!+	c #E3CB54",
"~+	c #E5C33D",
"{+	c #DAB233",
"]+	c #9A7521",
"^+	c #413A2E",
"/+	c #7C6457",
"(+	c #91745F",
"_+	c #65564B",
":+	c #786253",
"<+	c #9C7C65",
"[+	c #786354",
"}+	c #615449",
"|+	c #917560",
"1+	c #766256",
"2+	c #403A2F",
"3+	c #987320",
"4+	c #D2A232",
"5+	c #D4A135",
"6+	c #E4CF57",
"7+	c #E6C73C",
"8+	c #E7C435",
"9+	c #E5BF37",
"0+	c #E0B53E",
"a+	c #DDAD39",
"b+	c #DAA936",
"c+	c #CB9931",
"d+	c #835C14",
"e+	c #664430",
"f+	c #C3846C",
"g+	c #B89689",
"h+	c #7A6C63",
"i+	c #B68864",
"j+	c #EEB284",
"k+	c #B68765",
"l+	c #766860",
"m+	c #B99689",
"n+	c #BC816C",
"o+	c #694632",
"p+	c #815A13",
"q+	c #CE9F2F",
"r+	c #E1BD3E",
"s+	c #E3BE37",
"t+	c #E2BB41",
"u+	c #E6C337",
"v+	c #E0B136",
"w+	c #DAA636",
"x+	c #CF9734",
"y+	c #B28326",
"z+	c #8D5B25",
"A+	c #C87964",
"B+	c #E1BBB4",
"C+	c #B09688",
"D+	c #C6956D",
"E+	c #F4C599",
"F+	c #C8966D",
"G+	c #AB9285",
"H+	c #E1BDB5",
"I+	c #C67E6A",
"J+	c #8C5F28",
"K+	c #B5952A",
"L+	c #DDBA34",
"M+	c #E5C33B",
"N+	c #E4CB51",
"O+	c #E5BF35",
"P+	c #DBA937",
"Q+	c #CD9534",
"R+	c #D09935",
"S+	c #DEAA38",
"T+	c #CF9D31",
"U+	c #8F6318",
"V+	c #A9664A",
"W+	c #D9A092",
"X+	c #D8A085",
"Y+	c #E5B48A",
"Z+	c #FCD5AB",
"`+	c #E6B58B",
" @	c #D59C82",
".@	c #DBA294",
"+@	c #A96A4E",
"@@	c #8B6821",
"#@	c #D2B948",
"$@	c #E2C13E",
"%@	c #DBAF3E",
"&@	c #D29F36",
"*@	c #DAA736",
"=@	c #DCA837",
"-@	c #DAA536",
";@	c #D09F35",
">@	c #98782A",
",@	c #83572A",
"'@	c #B06B51",
")@	c #DB9073",
"!@	c #F0B78F",
"~@	c #F7C89C",
"{@	c #F1B890",
"]@	c #DC9174",
"^@	c #B26B53",
"/@	c #86582C",
"(@	c #93762B",
"_@	c #C79937",
":@	c #D19A34",
"<@	c #E0AE38",
"[@	c #D09835",
"}@	c #DBAA36",
"|@	c #E0AF37",
"1@	c #D7A437",
"2@	c #B18E38",
"3@	c #8C823D",
"4@	c #665823",
"5@	c #794D25",
"6@	c #A46346",
"7@	c #BE815B",
"8@	c #C38E60",
"9@	c #A76447",
"0@	c #7A4C26",
"a@	c #685722",
"b@	c #8A823E",
"c@	c #AB8837",
"d@	c #C99534",
"e@	c #DEB039",
"f@	c #E1BE3D",
"g@	c #DCAA37",
"h@	c #DBAD37",
"i@	c #DFB435",
"j@	c #C89735",
"k@	c #786C33",
"l@	c #4D552F",
"m@	c #505830",
"n@	c #4E4019",
"o@	c #52340A",
"p@	c #56390C",
"q@	c #573A0D",
"r@	c #56390D",
"s@	c #53340A",
"t@	c #4F411A",
"u@	c #50562E",
"v@	c #4D542F",
"w@	c #786F34",
"x@	c #CAA73E",
"y@	c #E1C040",
"z@	c #E4C43F",
"A@	c #E4CB4E",
"B@	c #E1BE3C",
"C@	c #CF9935",
"D@	c #DCAD37",
"E@	c #E2BD3B",
"F@	c #E5C43D",
"G@	c #E4CE54",
"H@	c #E0B834",
"I@	c #D2A034",
"J@	c #C49233",
"K@	c #6A602C",
"L@	c #3E4729",
"M@	c #5A653A",
"N@	c #454C2D",
"O@	c #28271D",
"P@	c #231F1B",
"Q@	c #23201B",
"R@	c #28261D",
"S@	c #464C2E",
"T@	c #576238",
"U@	c #404729",
"V@	c #6E6B32",
"W@	c #CEC056",
"X@	c #E4D661",
"Y@	c #E3D15A",
"Z@	c #E2BF3E",
"`@	c #DCAF3C",
" #	c #D19E36",
".#	c #DDB13D",
"+#	c #DBA938",
"@#	c #CFA134",
"##	c #665E27",
"$#	c #2C3220",
"%#	c #435238",
"&#	c #4F6145",
"*#	c #384232",
"=#	c #1D1D1D",
"-#	c #1E1E1E",
";#	c #374030",
">#	c #506044",
",#	c #435138",
"'#	c #2D3420",
")#	c #665F27",
"!#	c #CBB039",
"~#	c #D29E36",
"{#	c #DBB03F",
"]#	c #E1BF40",
"^#	c #E3CE57",
"/#	c #E1BE3E",
"(#	c #DBAF3D",
"_#	c #CF9934",
":#	c #D29D35",
"<#	c #DEB335",
"[#	c #D4AF32",
"}#	c #514518",
"|#	c #14191A",
"1#	c #475A67",
"2#	c #446377",
"3#	c #273F50",
"4#	c #1B1F24",
"5#	c #1C2125",
"6#	c #263D4E",
"7#	c #456378",
"8#	c #435663",
"9#	c #1A1E1F",
"0#	c #4D3C17",
"a#	c #B88A2E",
"b#	c #D19C34",
"c#	c #D19E37",
"d#	c #D0A23F",
"e#	c #D2A541",
"f#	c #DBB143",
"g#	c #E1C249",
"h#	c #E3D25F",
"i#	c #E4D55E",
"j#	c #D2A036",
"k#	c #E1B337",
"l#	c #D2A833",
"m#	c #4A3B14",
"n#	c #101215",
"o#	c #9AA4AC",
"p#	c #8EACC4",
"q#	c #3E6685",
"r#	c #152838",
"s#	c #1C1E1F",
"t#	c #172A39",
"u#	c #3B6281",
"v#	c #8FADC5",
"w#	c #8F9AA3",
"x#	c #222425",
"y#	c #493714",
"z#	c #B7892E",
"A#	c #E1BD3D",
"B#	c #E1CB56",
"C#	c #E1CE5C",
"D#	c #E3D05D",
"E#	c #E3D15F",
"F#	c #E0CF5F",
"G#	c #E1C448",
"H#	c #DEAF38",
"I#	c #E2BE3B",
"J#	c #D5B032",
"K#	c #584419",
"L#	c #1F1F1D",
"M#	c #7C8FA0",
"N#	c #6494BA",
"O#	c #255982",
"P#	c #152839",
"Q#	c #162939",
"R#	c #22577F",
"S#	c #6594BB",
"T#	c #71879A",
"U#	c #262828",
"V#	c #5D4C19",
"W#	c #C9A72F",
"X#	c #E5C037",
"Y#	c #E3C240",
"Z#	c #DBB041",
"`#	c #D2A33D",
" $	c #DDAE37",
".$	c #E0B736",
"+$	c #E1BD3C",
"@$	c #E2CA51",
"#$	c #E5C43E",
"$$	c #DEB136",
"%$	c #B48E2D",
"&$	c #5E4D1D",
"*$	c #294459",
"=$	c #1C496B",
"-$	c #112F47",
";$	c #171C1F",
">$	c #1C1D1D",
",$	c #181C20",
"'$	c #112D44",
")$	c #1C486B",
"!$	c #264156",
"~$	c #594D1F",
"{$	c #B89C2C",
"]$	c #DFBC34",
"^$	c #E1B536",
"/$	c #DEAD37",
"($	c #D19B34",
"_$	c #E0B535",
":$	c #DDAE36",
"<$	c #D5A63C",
"[$	c #E0B538",
"}$	c #DDB435",
"|$	c #AD882C",
"1$	c #463B23",
"2$	c #0D1A24",
"3$	c #13191E",
"4$	c #191919",
"5$	c #1B1B1B",
"6$	c #191A1A",
"7$	c #151A1E",
"8$	c #0B1925",
"9$	c #403B23",
"0$	c #B2942C",
"a$	c #DFBB34",
"b$	c #DCAB36",
"c$	c #E0B536",
"d$	c #E0B735",
"e$	c #D39D35",
"f$	c #E4BD36",
"g$	c #E0B237",
"h$	c #BC8C2F",
"i$	c #503A13",
"j$	c #0A0806",
"k$	c #0D0D0D",
"l$	c #0F0F0F",
"m$	c #101010",
"n$	c #121212",
"o$	c #131313",
"p$	c #0B0C0D",
"q$	c #4E3F16",
"r$	c #C99E32",
"s$	c #DAA836",
"t$	c #D6A235",
"u$	c #DCB035",
"v$	c #DEB435",
"w$	c #DDB040",
"x$	c #DEB23E",
"y$	c #E1BB37",
"z$	c #E2BE35",
"A$	c #E1B137",
"B$	c #DDA937",
"C$	c #C59331",
"D$	c #76561D",
"E$	c #221809",
"F$	c #070707",
"G$	c #080808",
"H$	c #0B0B0B",
"I$	c #0E0E0E",
"J$	c #161616",
"K$	c #101011",
"L$	c #272011",
"M$	c #75571F",
"N$	c #C18C31",
"O$	c #D3A336",
"P$	c #D2A23C",
"Q$	c #CFA03E",
"R$	c #E3CF61",
"S$	c #E3CD5A",
"T$	c #E4C33E",
"U$	c #DDAB37",
"V$	c #DFAB38",
"W$	c #C79A31",
"X$	c #5D4815",
"Y$	c #050506",
"Z$	c #090909",
"`$	c #1F1F1F",
" %	c #111110",
".%	c #503B16",
"+%	c #BB8C30",
"@%	c #DDAC39",
"#%	c #DEB23F",
"$%	c #E3C13E",
"%%	c #E2C23F",
"&%	c #E1CD59",
"*%	c #E1D060",
"=%	c #DDB042",
"-%	c #DDAF40",
";%	c #DAA938",
">%	c #D59E36",
",%	c #DDA838",
"'%	c #E0AD38",
")%	c #CCA631",
"!%	c #614F15",
"~%	c #040506",
"{%	c #060606",
"]%	c #0C0C0C",
"^%	c #171717",
"/%	c #242424",
"(%	c #121211",
"_%	c #554515",
":%	c #CBA830",
"<%	c #E3CB56",
"[%	c #E2C03D",
"}%	c #E2C240",
"|%	c #D09834",
"1%	c #DDAD37",
"2%	c #E0B037",
"3%	c #D6A934",
"4%	c #987525",
"5%	c #35270D",
"6%	c #040404",
"7%	c #202020",
"8%	c #544613",
"9%	c #CDAC30",
"0%	c #E1BA38",
"a%	c #DEB341",
"b%	c #DBAF43",
"c%	c #D2A43F",
"d%	c #DEAE37",
"e%	c #DDB335",
"f%	c #C69431",
"g%	c #846021",
"h%	c #30240D",
"i%	c #000102",
"j%	c #020202",
"k%	c #121111",
"l%	c #191818",
"m%	c #151514",
"n%	c #2E2611",
"o%	c #876821",
"p%	c #CE9F33",
"q%	c #D39F35",
"r%	c #CC9833",
"s%	c #634F1A",
"t%	c #060909",
"u%	c #0D0D09",
"v%	c #090907",
"w%	c #1E150B",
"x%	c #402D15",
"y%	c #332412",
"z%	c #4A3715",
"A%	c #C18D31",
"B%	c #D3A134",
"C%	c #D9A637",
"D%	c #94732A",
"E%	c #725A22",
"F%	c #766022",
"G%	c #433816",
"H%	c #2A1C0E",
"I%	c #5D3F19",
"J%	c #4B3418",
"K%	c #4A3717",
"L%	c #C08B31",
"M%	c #CD9434",
"N%	c #CF9735",
"O%	c #E6C335",
"P%	c #D49E35",
"Q%	c #E0B137",
"R%	c #E3B936",
"S%	c #E0B436",
"T%	c #CC9934",
"U%	c #C99B32",
"V%	c #D1A534",
"W%	c #9C7D2B",
"X%	c #655021",
"Y%	c #624B21",
"Z%	c #5F4920",
"`%	c #7E6225",
" &	c #C99732",
".&	c #DCAB37",
"+&	c #DBA737",
"@&	c #DDAA37",
"#&	c #E3B836",
"$&	c #E4BB35",
"%&	c #DEB934",
"&&	c #D4A535",
"*&	c #D2A136",
"=&	c #D3A535",
"-&	c #DAB534",
";&	c #E5BD36",
">&	c #DDAC36",
"  . + @ # $ % & * = - ; > , ' ) ! ~ { ] ^ / ( _ : < [ } * * | 1 ",
"2 3 4 5 6 7 8 9 0 a b c d e f g h i j k l m n [ & o p q r r s t ",
"u v w x y z A B C D E F G H I J K L M N O P Q R S T U T T V W X ",
"Y Z ` S S  .V ..+.@.#.$.%.&.*.&.=.&.-.;.>.,.'.T T ).!.p o ~.{.].",
"V ).^.A /.o Y (._.:.<.[.%.}.|.1.2.3.4.5.6.7.8.S 9.0.a.w Z ~.o b.",
"c.c.d.e.f.g.[ * h.i.j.k.l.&.m.&.n.o.&.p.q.r.s.t.u.v.q c.c.r w.x.",
"y.z.x A.B.Y R d.C.D.E.}.F.G.H.I.J.K.L.}.M.N.O.d.P.Q.r r r d.p b.",
"R.o b.S.T.U.^.V.W.X.Y.Z.`. +.+++@+#+$+%+&+*+=+S ` ~.-+;+>+;+~.Q ",
",+'+U )+!+~+T ).{+]+^+/+(+_+:+<+[+}+|+1+2+3+4+5+Y ~.` S V V V V ",
"6+7+8+9+0+a+b+~.c+d+e+f+g+h+i+j+k+l+m+n+o+p+q+8 r+s+^.8+^.V r r ",
"t+u+U v+w+f.x+f.0.y+z+A+B+C+D+E+F+G+H+I+J+K+L+M+N+- r q 9.w z.5+",
"/ O+!.P+B.Q+R+w+S+T+U+V+W+X+Y+Z+`+ @.@+@@@#@$@..%@&@* Y Y Z *@=@",
"b.o {._ : R+-@S+S+;@>@,@'@)@!@~@{@]@^@/@(@_@| } :@B.Y ` S A x.<@",
"[@x+Q+[ Y }@|@|@1@2@3@4@5@6@7@8@7@9@0@a@b@c@d@Y o e@f@'+T V d.g@",
": x+Y h@f@'+O+i@j@k@l@m@n@o@p@q@r@s@t@u@v@w@x@y@z@# A@B@9.~.* C@",
"R.D@E@F@G@F@H@I@J@K@L@M@N@O@P@P@Q@R@S@T@U@V@W@X@Y@Z@`@ #x+Q+_ } ",
",+# C Z@.#+#Y R.@###$#%#&#*#=#=#-#;#>#,#'#)#!#Z@%@~#_ Q+_ &@{#]#",
"^#/#(#~#_#x+:#<#[#}#|#1#2#3#4#=#5#6#7#8#9#0#a#b#A.c#d#e#f#g#h#i#",
"u j#[ x+[ Y }@k#l#m#n#o#p#q#r#s#t#u#v#w#x#y#z#~.` A#B#C#D#E#F#G#",
":@} & o H#I#'+T J#K#L#M#N#O#P#s#Q#R#S#T#U#V#W#S / X#,+Y#]#Z#`#&@",
" $.$!.q +$@$#$V.$$%$&$*$=$-$;$>$,$'$)$!$~${$]$^$/$o Y } } ($-+o ",
"_$:$b+Y  #<$[$U / }$|$1$2$3$4$5$6$7$8$9$0$a$V <#:#g._#b#-+b$c$d$",
"z.e$~.y.Y v.f$f$g$b+h$i$j$k$l$m$n$o$p$q$r$s$w * Q+< t$u$v$c$b$-+",
"w$x$y$z$V A f$A$B$C$D$E$F$G$H$I$n$J$K$L$M$N$Q+: _ [ b#;+>+O$P$Q$",
"R$S$T$).S p U$V$S+W$X$Y$G$G$Z$I$J$`$=# %.%+%b#Y P+@%#%]#$%%%&%*%",
"=%-%;%Y b#A.>%,%'%)%!%~%F${%{%]%^%/%/%(%_%:%V V T ~+<%D#B#[%$@}%",
"[ |%f.R+Y b+1%|@2%3%4%5%Y$6%6%]%J$7%`$l$8%9%A c.r 0%a%b%c% #y.y.",
"} Y o d%S  .!.q q e%f%g%h%i%j%G$k%l%m%n%o%p%q%* * } [ _ : Q+(.} ",
"V ).O+A S ` Z Y Q :#[ r%s%t%u%v%w%x%y%z%A%< : : : : : _ [ B%P.V ",
"c.c.d.9.0.A.n -@U$b.U$C%D%E%F%G%H%I%J%K%L%M%N%g.g.g.n o :$S O%U ",
"y.y.y.P%P+b.b.Q%R%Q.S%*@T%U%V%W%X%Y%Z%`% &~.b+b..&+&@&#&$&r d.:$",
": : _ ( / ^.^.A /.q%} :@o !.T %&&&*&=&-&c.).T ^.;&|@V$<@>&q%} [ "};
