/* XPM */
static char * player_xpm[] = {
"32 32 681 2",
"  	c #E0B640",
". 	c #E5C641",
"+ 	c #E4D256",
"@ 	c #E5C53F",
"# 	c #E5C43F",
"$ 	c #E1C957",
"% 	c #DCB042",
"& 	c #D29E35",
"* 	c #D09C34",
"= 	c #D4A436",
"- 	c #E3C03C",
"; 	c #E7C537",
"> 	c #E7C535",
", 	c #E7C435",
"' 	c #E4BE36",
") 	c #E0AE38",
"! 	c #D9A738",
"~ 	c #D6A937",
"{ 	c #E0BC35",
"] 	c #E2C135",
"^ 	c #DCBD35",
"/ 	c #DDB835",
"( 	c #DAA836",
"_ 	c #CE9734",
": 	c #CC9434",
"< 	c #CE9634",
"[ 	c #CF9834",
"} 	c #D09B34",
"| 	c #D09C36",
"1 	c #D09F3E",
"2 	c #E2CA57",
"3 	c #E1C03E",
"4 	c #E0BC3C",
"5 	c #DDAF38",
"6 	c #DBAA38",
"7 	c #D7A83D",
"8 	c #DEB038",
"9 	c #E2BB37",
"0 	c #E2C03E",
"a 	c #E2C23F",
"b 	c #E4CE4E",
"c 	c #E5C33C",
"d 	c #E2BD35",
"e 	c #DBB737",
"f 	c #D6B03E",
"g 	c #D4A83A",
"h 	c #A08435",
"i 	c #716633",
"j 	c #A49134",
"k 	c #A99635",
"l 	c #766D34",
"m 	c #8F7734",
"n 	c #BE8F35",
"o 	c #C79334",
"p 	c #D19D35",
"q 	c #DBA936",
"r 	c #DEAF36",
"s 	c #E1BA35",
"t 	c #E2BC35",
"u 	c #E2BE3C",
"v 	c #E0C657",
"w 	c #DAAE41",
"x 	c #D3A136",
"y 	c #D3A034",
"z 	c #D4A035",
"A 	c #D5A235",
"B 	c #DDAD36",
"C 	c #E4BE35",
"D 	c #E6C63B",
"E 	c #E4CC51",
"F 	c #E2C13E",
"G 	c #E1BC3D",
"H 	c #DCAD38",
"I 	c #CF9F34",
"J 	c #987D37",
"K 	c #7B7346",
"L 	c #7C7346",
"M 	c #45493A",
"N 	c #001E38",
"O 	c #464D42",
"P 	c #475047",
"Q 	c #002B48",
"R 	c #323B43",
"S 	c #68593E",
"T 	c #876F34",
"U 	c #D5B135",
"V 	c #E5C035",
"W 	c #E6C135",
"X 	c #E3BD35",
"Y 	c #E1BA37",
"Z 	c #DDB341",
"` 	c #D29E34",
" .	c #D39E34",
"..	c #DCAC35",
"+.	c #E2BB35",
"@.	c #E4BC35",
"#.	c #E2BB36",
"$.	c #DBAF3E",
"%.	c #D29F36",
"&.	c #D29D35",
"*.	c #D0A036",
"=.	c #6C5E34",
"-.	c #002E48",
";.	c #0D3754",
">.	c #0A2F4B",
",.	c #072A45",
"'.	c #0A304B",
").	c #0A314E",
"!.	c #083150",
"~.	c #09304D",
"{.	c #082B44",
"].	c #454A33",
"^.	c #CFB035",
"/.	c #E3BE35",
"(.	c #E2BA35",
"_.	c #D39F34",
":.	c #D29D34",
"<.	c #D29B34",
"[.	c #E5C135",
"}.	c #DEAF37",
"|.	c #CF9A34",
"1.	c #D8A936",
"2.	c #9C8734",
"3.	c #3E4433",
"4.	c #032B48",
"5.	c #093354",
"6.	c #082D4A",
"7.	c #06263F",
"8.	c #062640",
"9.	c #072944",
"0.	c #082F4D",
"a.	c #062A45",
"b.	c #273433",
"c.	c #887334",
"d.	c #C79934",
"e.	c #D4A134",
"f.	c #DDAC37",
"g.	c #E1B935",
"h.	c #DBAB36",
"i.	c #D19A35",
"j.	c #CF9835",
"k.	c #D19C34",
"l.	c #D29F34",
"m.	c #DCAC36",
"n.	c #DCBB36",
"o.	c #595A36",
"p.	c #00233E",
"q.	c #08304F",
"r.	c #06253D",
"s.	c #062740",
"t.	c #072C49",
"u.	c #083253",
"v.	c #072842",
"w.	c #494433",
"x.	c #C09B35",
"y.	c #E3BC36",
"z.	c #E4BC36",
"A.	c #D19D34",
"B.	c #D4A034",
"C.	c #D29C35",
"D.	c #D09934",
"E.	c #DBAC35",
"F.	c #E5C036",
"G.	c #DCBB3A",
"H.	c #585B3D",
"I.	c #012947",
"J.	c #083454",
"K.	c #062D4A",
"L.	c #032B49",
"M.	c #082E4D",
"N.	c #082E4B",
"O.	c #4B4934",
"P.	c #C2A334",
"Q.	c #E3BC35",
"R.	c #D19E34",
"S.	c #DDAC38",
"T.	c #DEB13D",
"U.	c #E2BC37",
"V.	c #E6C235",
"W.	c #E1B537",
"X.	c #DFAF37",
"Y.	c #DEAC37",
"Z.	c #D6A637",
"`.	c #806936",
" +	c #2C383D",
".+	c #052D49",
"++	c #072B47",
"@+	c #072A46",
"#+	c #072A47",
"$+	c #333E49",
"%+	c #695F58",
"&+	c #545555",
"*+	c #12293C",
"=+	c #20333E",
"-+	c #736234",
";+	c #C19334",
">+	c #D4A234",
",+	c #D4A334",
"'+	c #D39E35",
")+	c #E3C23E",
"!+	c #E5C137",
"~+	c #E3CB54",
"{+	c #E5C33D",
"]+	c #E1B835",
"^+	c #DDAB37",
"/+	c #D49F35",
"(+	c #C69634",
"_+	c #695B34",
":+	c #002642",
"<+	c #06273E",
"[+	c #021E31",
"}+	c #38393E",
"|+	c #7E6959",
"1+	c #C49C7A",
"2+	c #AA947C",
"3+	c #625A54",
"4+	c #614E39",
"5+	c #C19234",
"6+	c #E4CF57",
"7+	c #E6C73C",
"8+	c #E5BF37",
"9+	c #E0B53E",
"0+	c #DDAD39",
"a+	c #DAA936",
"b+	c #DCA837",
"c+	c #DDAA37",
"d+	c #DFB536",
"e+	c #D6B035",
"f+	c #6E6433",
"g+	c #00223C",
"h+	c #1E2F3E",
"i+	c #4B3C3F",
"j+	c #6A504C",
"k+	c #A17F66",
"l+	c #B89479",
"m+	c #7C6F66",
"n+	c #957E67",
"o+	c #C49D7F",
"p+	c #A9764A",
"q+	c #D9B43E",
"r+	c #E3BE37",
"s+	c #E2BB41",
"t+	c #E6C337",
"u+	c #E0B136",
"v+	c #DAA636",
"w+	c #CF9734",
"x+	c #DAA536",
"y+	c #DEAA38",
"z+	c #DFAB37",
"A+	c #D3A536",
"B+	c #6B5D33",
"C+	c #001B30",
"D+	c #3C301D",
"E+	c #8B573A",
"F+	c #C9896D",
"G+	c #E5AB7F",
"H+	c #E4BFA4",
"I+	c #B6A9A1",
"J+	c #A37F60",
"K+	c #D2A481",
"L+	c #B27E4E",
"M+	c #DCC150",
"N+	c #E3C13C",
"O+	c #D4A135",
"P+	c #E4BD35",
"Q+	c #E5BF35",
"R+	c #DBA937",
"S+	c #CD9534",
"T+	c #D09935",
"U+	c #D09A35",
"V+	c #C79234",
"W+	c #776132",
"X+	c #1B2B2F",
"Y+	c #352D1C",
"Z+	c #764A27",
"`+	c #C0815E",
" @	c #EDAC80",
".@	c #F2C8A9",
"+@	c #DEC0AF",
"@@	c #C99066",
"#@	c #D3A27A",
"$@	c #A97642",
"%@	c #D4A63D",
"&@	c #DAA736",
"*@	c #DFAA38",
"=@	c #D7A437",
"-@	c #C09033",
";@	c #B78832",
">@	c #B78A32",
",@	c #AB8933",
"'@	c #625A30",
")@	c #16252C",
"!@	c #4A3621",
"~@	c #A46444",
"{@	c #DF9574",
"]@	c #EFAE87",
"^@	c #EDAE88",
"/@	c #E3A479",
"(@	c #C08C5B",
"_@	c #976925",
":@	c #C89331",
"<@	c #D09835",
"[@	c #DBAA36",
"}@	c #E0AF37",
"|@	c #D8A537",
"1@	c #B68B33",
"2@	c #77672F",
"3@	c #5E5D30",
"4@	c #605F31",
"5@	c #5E5E30",
"6@	c #4B512E",
"7@	c #29362E",
"8@	c #4C3A2F",
"9@	c #885339",
"0@	c #AD6B55",
"a@	c #CB7F68",
"b@	c #D18267",
"c@	c #BC7754",
"d@	c #A17027",
"e@	c #C2912D",
"f@	c #D9A835",
"g@	c #DEB039",
"h@	c #E1BE3D",
"i@	c #DCAA37",
"j@	c #DBAD37",
"k@	c #DCB235",
"l@	c #B98F33",
"m@	c #776830",
"n@	c #5C6438",
"o@	c #6E7C4A",
"p@	c #717E49",
"q@	c #636E3E",
"r@	c #576238",
"s@	c #485231",
"t@	c #40422A",
"u@	c #463D26",
"v@	c #4E402A",
"w@	c #644529",
"x@	c #774921",
"y@	c #8F6424",
"z@	c #C79F37",
"A@	c #E0BF40",
"B@	c #E4C43F",
"C@	c #E4CB4E",
"D@	c #E1BE3C",
"E@	c #CF9935",
"F@	c #DCAD37",
"G@	c #E2BD3B",
"H@	c #E5C43D",
"I@	c #E4CE54",
"J@	c #DDB734",
"K@	c #BB9432",
"L@	c #736730",
"M@	c #5D6539",
"N@	c #73814F",
"O@	c #9EAF76",
"P@	c #9DA864",
"Q@	c #7D874A",
"R@	c #616D3E",
"S@	c #586338",
"T@	c #525D34",
"U@	c #4C5630",
"V@	c #41492A",
"W@	c #35381E",
"X@	c #343018",
"Y@	c #70672E",
"Z@	c #C7BA57",
"`@	c #E3D561",
" #	c #E3D15A",
".#	c #E2BF3E",
"+#	c #DCAF3C",
"@#	c #D19E36",
"##	c #DDB13D",
"$#	c #BE9233",
"%#	c #74672F",
"&#	c #5A6236",
"*#	c #6E7B4A",
"=#	c #98A972",
"-#	c #A6B16C",
";#	c #8A9454",
">#	c #6B7642",
",#	c #5C673B",
"'#	c #596439",
")#	c #4D5731",
"!#	c #333921",
"~#	c #1B1D13",
"{#	c #1A1B15",
"]#	c #1F2C32",
"^#	c #34505E",
"/#	c #78815E",
"(#	c #CFB445",
"_#	c #DAAE3E",
":#	c #D29E36",
"<#	c #DBB03F",
"[#	c #E1BF40",
"}#	c #E3CE57",
"|#	c #E1BE3E",
"1#	c #DBAF3D",
"2#	c #CF9934",
"3#	c #B68C33",
"4#	c #625D2D",
"5#	c #657142",
"6#	c #7D8C57",
"7#	c #818D51",
"8#	c #6B7743",
"9#	c #5D683B",
"0#	c #596438",
"a#	c #4E5832",
"b#	c #323821",
"c#	c #141510",
"d#	c #111111",
"e#	c #131414",
"f#	c #334351",
"g#	c #7F9BB2",
"h#	c #8B9FAA",
"i#	c #72725A",
"j#	c #C59538",
"k#	c #D19E37",
"l#	c #D0A23F",
"m#	c #D2A541",
"n#	c #DBB143",
"o#	c #E1C249",
"p#	c #E3D25F",
"q#	c #E4D55E",
"r#	c #D2A036",
"s#	c #BE9734",
"t#	c #645F2D",
"u#	c #566036",
"v#	c #5B663A",
"w#	c #5F6B3D",
"x#	c #5A6539",
"y#	c #505A33",
"z#	c #3B4226",
"A#	c #1F2217",
"B#	c #0C0C0D",
"C#	c #101010",
"D#	c #141516",
"E#	c #2E465A",
"F#	c #799FC0",
"G#	c #809EB5",
"H#	c #506262",
"I#	c #CAA239",
"J#	c #E1BD3D",
"K#	c #E1CB56",
"L#	c #E1CE5C",
"M#	c #E3D05D",
"N#	c #E3D15F",
"O#	c #E0CF5F",
"P#	c #E1C448",
"Q#	c #D19A34",
"R#	c #DEAF38",
"S#	c #E3BE3B",
"T#	c #C6AB34",
"U#	c #64612C",
"V#	c #4A532F",
"W#	c #576137",
"X#	c #5A6439",
"Y#	c #4B5430",
"Z#	c #292E1B",
"`#	c #161714",
" $	c #151515",
".$	c #0D0D0D",
"+$	c #0D0D0E",
"@$	c #12283A",
"#$	c #28567A",
"$$	c #5D7372",
"%$	c #B09D46",
"&$	c #DEBA37",
"*$	c #E5C037",
"=$	c #E3C240",
"-$	c #DBB041",
";$	c #D2A33D",
">$	c #DDAE37",
",$	c #E0B736",
"'$	c #E1BD3C",
")$	c #E2CA51",
"!$	c #C5AD3B",
"~$	c #5F5924",
"{$	c #373D22",
"]$	c #47502D",
"^$	c #4F5932",
"/$	c #3C4326",
"($	c #1D1F13",
"_$	c #131313",
":$	c #1A1A1A",
"<$	c #141414",
"[$	c #0E0F0F",
"}$	c #0D1319",
"|$	c #454A35",
"1$	c #A3943F",
"2$	c #DAB038",
"3$	c #DDAD37",
"4$	c #D19B34",
"5$	c #E0B535",
"6$	c #DDAE36",
"7$	c #D6A63C",
"8$	c #D0A936",
"9$	c #998429",
"0$	c #3E3E1D",
"a$	c #343A21",
"b$	c #474F2D",
"c$	c #4C5631",
"d$	c #3D4527",
"e$	c #2B301C",
"f$	c #171910",
"g$	c #191919",
"h$	c #0E0F0E",
"i$	c #6B5919",
"j$	c #D0AD30",
"k$	c #DEB435",
"l$	c #DCAB36",
"m$	c #E0B536",
"n$	c #E0B735",
"o$	c #D39D35",
"p$	c #DCAD36",
"q$	c #CAAB32",
"r$	c #4B461E",
"s$	c #282E1B",
"t$	c #31371F",
"u$	c #343B22",
"v$	c #333A21",
"w$	c #2C311C",
"x$	c #1E2214",
"y$	c #12130F",
"z$	c #644B18",
"A$	c #C09130",
"B$	c #D6A235",
"C$	c #DCB035",
"D$	c #DDB040",
"E$	c #DEB23E",
"F$	c #E1BB37",
"G$	c #E2BE35",
"H$	c #E4BD36",
"I$	c #D5A935",
"J$	c #91752A",
"K$	c #413D1D",
"L$	c #282D1A",
"M$	c #292E1A",
"N$	c #282D19",
"O$	c #191B10",
"P$	c #171717",
"Q$	c #0F0F0F",
"R$	c #080909",
"S$	c #5E4416",
"T$	c #BB8830",
"U$	c #D3A336",
"V$	c #D2A23C",
"W$	c #CFA03E",
"X$	c #E3CF61",
"Y$	c #E3CD5A",
"Z$	c #E4C33E",
"`$	c #DEAB38",
" %	c #8E7429",
".%	c #45411D",
"+%	c #2C301B",
"@%	c #33341B",
"#%	c #594F1F",
"$%	c #453B16",
"%%	c #161616",
"&%	c #1D1D1D",
"*%	c #181818",
"=%	c #0B0B0B",
"-%	c #050606",
";%	c #5D4415",
">%	c #BB8B2F",
",%	c #DDAC39",
"'%	c #DEB23F",
")%	c #E3C13E",
"!%	c #E1CD59",
"~%	c #E1D060",
"{%	c #DDB042",
"]%	c #DDAF40",
"^%	c #DAA938",
"/%	c #D59E36",
"(%	c #DDA838",
"_%	c #DFAD38",
":%	c #D3AD34",
"<%	c #9D842A",
"[%	c #857027",
"}%	c #846927",
"|%	c #A07A2B",
"1%	c #70541C",
"2%	c #1C1B1A",
"3%	c #1F1F1F",
"4%	c #121212",
"5%	c #080808",
"6%	c #060606",
"7%	c #45380F",
"8%	c #A18425",
"9%	c #DCB834",
"0%	c #E3CB56",
"a%	c #E2C03D",
"b%	c #E2C240",
"c%	c #D09834",
"d%	c #E0B037",
"e%	c #DFB137",
"f%	c #D6A736",
"g%	c #D1A135",
"h%	c #C49132",
"i%	c #996F27",
"j%	c #4B3613",
"k%	c #161515",
"l%	c #000000",
"m%	c #010203",
"n%	c #070707",
"o%	c #000005",
"p%	c #584914",
"q%	c #D6B232",
"r%	c #E1BA38",
"s%	c #DEB341",
"t%	c #DBAF43",
"u%	c #D2A43F",
"v%	c #DEAE37",
"w%	c #C69332",
"x%	c #694D19",
"y%	c #181817",
"z%	c #100F0F",
"A%	c #010101",
"B%	c #302608",
"C%	c #342B0F",
"D%	c #1B140D",
"E%	c #2E1E0C",
"F%	c #694C1A",
"G%	c #C69432",
"H%	c #D4AC32",
"I%	c #6F5D1B",
"J%	c #20160D",
"K%	c #3E2D19",
"L%	c #3A2913",
"M%	c #3F2D0B",
"N%	c #8D6A22",
"O%	c #7E6025",
"P%	c #352716",
"Q%	c #614119",
"R%	c #8F6527",
"S%	c #C68F33",
"T%	c #D3A134",
"U%	c #E0B835",
"V%	c #D5A135",
"W%	c #D29B35",
"X%	c #D3A434",
"Y%	c #735F22",
"Z%	c #3E2A14",
"`%	c #66451D",
" &	c #67461B",
".&	c #8C6622",
"+&	c #C38F31",
"@&	c #9B712B",
"#&	c #5B441F",
"$&	c #5A431F",
"%&	c #7F5F26",
"&&	c #C79233",
"*&	c #E6C335",
"=&	c #D49E35",
"-&	c #E0B137",
";&	c #E3B936",
">&	c #E0B436",
",&	c #DBA836",
"'&	c #CD9934",
")&	c #846727",
"!&	c #50411E",
"~&	c #55451F",
"{&	c #58451F",
"]&	c #926D29",
"^&	c #CB9633",
"/&	c #C89633",
"(&	c #BD9030",
"_&	c #BF9231",
":&	c #CC9F33",
"<&	c #DCAB37",
"[&	c #DBA737",
"}&	c #E3B836",
"|&	c #E4BB35",
"1&	c #D39F35",
"2&	c #D8B333",
"3&	c #D5B432",
"4&	c #D4B133",
"5&	c #CFA234",
"6&	c #E5BD36",
"7&	c #DFAB38",
"8&	c #DDAC36",
"  . + @ # $ % & * = - ; > , ' ) ! ~ { ] ^ / ( _ : < [ } * * | 1 ",
"2 3 4 5 6 7 8 9 0 a b c d e f g h i j k l m n o p q r s t t u v ",
"w x y z A B C D E F G H I J K L M N O P Q R S T U V W V V X Y Z ",
"`  ...+.+.@.X #.$.%.} &.*.=.-.;.>.,.'.).!.~.{.].^./.(.r q _.:.<.",
"X /.[.C }.q ` |._ [ ` 1.2.3.4.5.6.7.8.8.9.0.a.b.c.d.e.y  ._.q f.",
"d d g.h.i.j.[ k.l.m.(.n.o.p.0.q.,.r.r.s.t.u.q.v.w.x.(.d d t y.z.",
"A.B.z C.D.` E.g.g.y.F.G.H.I.J.!.0.q.q.K.Q L.M.N.O.P.Q.t t g.r f.",
"R.q f.S.T.U.[.V.W.X.Y.Z.`. +.+0.++@+#+$+%+&+*+=+-+;+y >+,+>+_.'+",
")+!+W c ~+{+V /.]+^+/+` (+_+:+N.<+[+}+|+1+2+3+4+5+_...+.X X X X ",
"6+7+, 8+9+0+a+_.A b+c+d+e+f+g+h+i+j+k+l+m+n+o+p+q+r+[., [.X t t ",
"s+t+W u+v+i.w+i.x+y+z+f.A+B+C+D+E+F+G+H+I+J+K+L+M+N+t s m.y B.O+",
"P+Q+(.R+D.S+T+v+y+y+x+U+V+W+X+Y+Z+`+ @.@+@@@#@$@%@%.* ` `  .&@b+",
"f.q :._ : T+x+y+*@=@-@;@>@,@'@)@!@~@{@]@^@/@(@_@:@D.` ..+.C z.) ",
"<@w+S+[ ` [@}@}@|@1@2@3@4@5@6@7@8@9@0@a@b@c@d@e@f@g@h@!+V X g.i@",
": w+` j@h@!+Q+k@l@m@n@o@p@q@r@s@t@u@v@w@x@y@z@A@B@# C@D@m._.* E@",
"R.F@G@H@I@H@J@K@L@M@N@O@P@Q@R@S@T@U@V@W@X@Y@Z@`@ #.#+#@#w+S+_ } ",
")+# E .###6 $#%#&#*#=#-#;#>#,#'#)#!#~#{#]#^#/#(#_#:#_ S+_ %.<#[#",
"}#|#1#:#2#<@3#4#r@5#6#7#8#9#0#a#b#c#d#e#f#g#h#i#j#k#l#m#n#o#p#q#",
"w r#[ w+[ _.s#t#u#v#w#R@9#x#y#z#A#B#C#D#E#F#G#H#I#J#K#L#M#N#O#P#",
"Q#} & q R#S#T#U#V#W#v#v#v#X#Y#Z#`# $.$+$@$#$$$%$&$*$)+=$[#-$;$%.",
">$,$(.s '$)$!$~${$]$u#x#'#^$/$($_$:$<$[$}$|$1$2$3$q ` } } 4$l.q ",
"5$6$a+` @#7$8$9$0$a$b$c$Y#d$e$f$C#g$:$ $h$i$j$k$&.j.2#k.l.l$m$n$",
"B.o$_.A.` p$P+q$r$s$t$u$v$w$x$y$_$:$:$<$.$z$A$* S+< B$C$k$m$l$l.",
"D$E$F$G$X C H$I$J$K$L$M$M$N$O$h$P$:$<$Q$R$S$T$: _ [ k.>+,+U$V$W$",
"X$Y$Z$/.+.r ^+`$U$ %.%+%@%#%$%%%&%*%Q$=%-%;%>%R.R+,%'%[#)%a !%~%",
"{%]%^%` k.C./%(%_%:%<%[%}%|%1%2%3%4%5%6%6%7%8%9%V {+0%M#K#a%F b%",
"[ c%i.T+` a+3$}@d%e%f%g%h%i%j%k%<$6%l%m%n%o%p%q%t r%s%t%u%@#A.A.",
"} ` q v%+.@.(.s s k$` [ w%x%=%y%z%A%B%C%D%E%F%G%* } [ _ : S+|.} ",
"X /.Q+C +... .` '+&.c%:.H%I%J%K%L%M%N%O%P%Q%R%S%: : : _ [ T%U%X ",
"d d g.m.V%C.W%x+^+f.^+b+X%Y%Z%`% &.&+&@&#&$&%&&&j.j.W%q 6$+.*&W ",
"A.A.A.=&R+f.f.-&;&]+>&,&'&)&!&~&{&]&^&/&(&_&:&h.<&[&c+}&|&t g.6$",
": : _ ,&P+[.[.C }.1&} Q#( 2&3&4&5&x <&(././.V [.6&}@7&) 8&1&} [ "};
