/* XPM */
static char *f588a0ea5b23445a92b097efa271c8f7fzeIXNiPkjMsNJN3[] = {
/* columns rows colors chars-per-pixel */
"32 32 203 2 ",
"   c #000116",
".  c #000B17",
"X  c #00051A",
"o  c #020D1B",
"O  c #0C0D1D",
"+  c #060D21",
"@  c #0D0D24",
"#  c #0D0D2B",
"$  c #0D132C",
"%  c #12152D",
"&  c #0D0D33",
"*  c #130D34",
"=  c #150D3B",
"-  c #190F3A",
";  c #0E1334",
":  c #151534",
">  c #15153C",
",  c #1A143B",
"<  c #22163B",
"1  c #22243B",
"2  c #352C3A",
"3  c #412919",
"4  c #503722",
"5  c #463835",
"6  c #455C3E",
"7  c #684537",
"8  c #774E3A",
"9  c #160E42",
"0  c #161543",
"q  c #1A1444",
"w  c #161944",
"e  c #16164A",
"r  c #1C164B",
"t  c #17194B",
"y  c #1A1B4D",
"u  c #1B1751",
"i  c #161851",
"p  c #1B1B54",
"a  c #1D1D5C",
"s  c #211541",
"d  c #2A1A43",
"f  c #23164D",
"g  c #21194B",
"h  c #241653",
"j  c #241A54",
"k  c #2B1C52",
"l  c #231C5B",
"z  c #2B1D5B",
"x  c #311E5A",
"c  c #1E225E",
"v  c #2A2947",
"b  c #34214B",
"n  c #36254C",
"m  c #3A334E",
"M  c #2E2359",
"N  c #34235B",
"B  c #352758",
"V  c #39255F",
"C  c #1F1C60",
"Z  c #221E62",
"A  c #2C1F61",
"S  c #301E61",
"D  c #1E2062",
"F  c #222266",
"G  c #25236B",
"H  c #2A246D",
"J  c #342364",
"K  c #392564",
"L  c #3E2A63",
"P  c #37266C",
"I  c #3B286D",
"U  c #353A67",
"Y  c #272671",
"T  c #2B2772",
"R  c #2C2874",
"E  c #2D2B7B",
"W  c #312A77",
"Q  c #3F2C73",
"!  c #342D7B",
"~  c #37317F",
"^  c #3B317D",
"/  c #483A44",
"(  c #442B57",
")  c #4B315B",
"_  c #593A56",
"`  c #422C64",
"'  c #422B6B",
"]  c #4D3364",
"[  c #4B336C",
"{  c #463869",
"}  c #563969",
"|  c #422D72",
" . c #482F70",
".. c #463175",
"X. c #4A3274",
"o. c #4C3578",
"O. c #473A7A",
"+. c #513773",
"@. c #543975",
"#. c #573B75",
"$. c #46594A",
"%. c #404055",
"&. c #4F5453",
"*. c #5E5453",
"=. c #674842",
"-. c #6A4251",
";. c #4C6350",
":. c #5B7855",
">. c #48466D",
",. c #4F526B",
"<. c #60477C",
"1. c #775270",
"2. c #776A68",
"3. c #7C7366",
"4. c #824C3D",
"5. c #84584A",
"6. c #915C49",
"7. c #876043",
"8. c #94624E",
"9. c #946653",
"0. c #9C675B",
"q. c #9D6C59",
"w. c #A46F57",
"e. c #A97359",
"r. c #B5785E",
"t. c #B35F60",
"y. c #966768",
"u. c #846278",
"i. c #987778",
"p. c #B46F63",
"a. c #AC7664",
"s. c #B57E67",
"d. c #B97E61",
"f. c #B47D6C",
"g. c #A87A72",
"h. c #C77070",
"j. c #6F9F4F",
"k. c #648553",
"l. c #6C9158",
"z. c #739956",
"x. c #75A454",
"c. c #7AA456",
"v. c #77AD53",
"b. c #7BAC55",
"n. c #7DAC5A",
"m. c #7EB359",
"M. c #6B876C",
"N. c #7E9472",
"B. c #9D9D5A",
"V. c #81AF57",
"C. c #86B558",
"Z. c #83B55C",
"A. c #86B85C",
"S. c #89BB5F",
"D. c #A3AB5E",
"F. c #B88468",
"G. c #AD9867",
"H. c #B58778",
"J. c #8CBC61",
"K. c #90BD64",
"L. c #9BB967",
"P. c #8FA87E",
"I. c #8FB770",
"U. c #9BB271",
"Y. c #C6856E",
"T. c #D18E6E",
"R. c #CC8771",
"E. c #C38B77",
"W. c #CB8D78",
"Q. c #C99276",
"!. c #D4947B",
"~. c #D99578",
"^. c #94C266",
"/. c #95C269",
"(. c #98C46A",
"). c #99C274",
"_. c #312F81",
"`. c #363284",
"'. c #3C3482",
"]. c #3B3688",
"[. c #423683",
"{. c #463885",
"}. c #483883",
"|. c #474381",
" X c #908583",
".X c #B9968E",
"XX c #91A881",
"oX c #ADAC81",
"OX c #A8BF84",
"+X c #B2BDA0",
"@X c #CD9A85",
"#X c #DF9B83",
"$X c #D69D88",
"%X c #E49E86",
"&X c #CBA682",
"*X c #DAA287",
"=X c #CFB38E",
"-X c #CCB494",
";X c #E3A386",
":X c #E9AD93",
">X c #EBB8A6",
",X c #A4C487",
"<X c #EBC0B1",
/* pixels */
"    o o O @ @ @ @ @ # % % % % # # # # # # # @ @ @ @ O O o .     ",
"  X o O @ @ @ @ # # $ % : : : : & & * # # # # @ @ @ @ O o o     ",
"X o @ @ @ @ @ # # # : : : : : : : : : : & # # # @ @ @ @ O o .   ",
"o O @ @ @ # # # : : : : > > > > > > : : & & # # # @ @ @ @ O o . ",
"o @ @ $ $ # # ; : > > > > > > > 1 > > > & & & # # # @ @ @ O O . ",
"+ @ # $ $ ; ; > > > > 0 0 0 2 &.2.m 0 > = & & & # # @ @ @ O O o ",
"@ # $ : : ; > > w w 0 0 0 v 5 2. X*.v 0 > = & & # # # @ @ @ O O ",
"@ # ; : > > > 0 t y t t t / 9.H..X2.2 e 0 > = & & # # # @ @ @ O ",
"# # ; > > 0 e t p p p p p 5.T.;X*XF.=.r e 0 = & & & & # # @ @ O ",
"# ; > > 0 e i p a c a a B w.~.:X:X!.5.M r 0 = = & & & & # # @ @ ",
"# ; > 0 t p a D F F F F { e.;X>X>X!.6.B u q 9 = = = = = & # # @ ",
"& > 0 e p a F G Y T Y G >.r.;X>X>X!.8.B j r q 9 9 0 0 = = & # # ",
"; > 0 t a F Y E E E R T <.w.@X>X<X@X5.M j r r q q q r q = * # # ",
"> 0 t p a G E _.`.`.! W y.8.a.E.H.q.7 ) j r r r r h f r q = * # ",
"> w y p Z Y E `.].].'.! g.e.H.W.E.i.8 _ l h f f h h h f r - * # ",
"0 t y p Z Y ! `.].].'.^ i.F.*X#X!.E.9._ z k j j z z z h f , * * ",
"0 t y p l G E `.].].'.^ u.r.%X~.R.#X6.) V N x z A S z k f s - * ",
"0 e t p a G Y ! ~ '.'.O.<.a.!.f.0.R.4.] ` ` K K P J J x k d < - ",
"> 0 e u a F H R ! ~ '.[.}.y.s.0.y.e.-.[ [ [ ' ' I I K V B b d < ",
"> 0 e u a Z F H R ! '.[.}.1.Y.h.t.e.} +.@.+.X...| | ' ` ` ( n d ",
"> > 0 e p a Z G H W ~ [.{.3.d.Y.p.8.[ +.@.+.X.X.X.X. .[ } ] ( b ",
": > 0 e u p a Z G Y ! '.|.B.e.$XW.7 %.o.@.+.X.X.o.X.X.+.@.} ) n ",
"# : > 0 e u p a Z G R ! M.B.F.s.q.4 z.O.o.X.......X.X.@.@.} ] B ",
"# & : > 0 e u p C G U l.Z.D.Q.8 3 7.b.k...| Q Q | | X.+.@.} ] B ",
"# # & : > 0 e u a ;.c.A.Z.L.*XF.w.G.x.m.l.>.P I I I ' [ [ [ ` M ",
"@ # # & > > 0 e ;.C.^.C.J.J.-X&XQ.oXx.Z.Z.x.,.H J J K L ` L N k ",
"@ # # & : > > 0 c.K.^.^.J.Z.+X&X=XP.n.Z.A.S.x.U A z z M N M k g ",
"@ @ # # : > = $.K.^./.(.K.n.XXU.OXN.x.Z.S.J.A.:.l j j j j g r 0 ",
"@ @ # # : : = k.J.J./.^./.^.^.I.n.Z.J.J.J.S.J.l.u r r r q 0 > > ",
"@ @ @ # & : * z.A.J./.^./.^.^./.J.J.J.A.Z.A.A.c.v q q 0 = = * & ",
"O @ @ # # * 1 V.m.J./././.^.^./.K.J.J.J.J.Z.b.x.$.9 = = = & # # ",
"O O @ @ # # 6 b.v.A.^././.^.^.,X).K.K.J.J.A.v.j.:.= = * & # # @ "
};
