/* XPM */
static char *_244c9ef154e4995b0415a9adbceea94pLp3KJogFmyy4RVX[] = {
/* columns rows colors chars-per-pixel */
"64 64 142 2 ",
"   c None",
".  c #07080B",
"X  c #090A0D",
"o  c #0D0F13",
"O  c #0F1114",
"+  c #111417",
"@  c #14161A",
"#  c #16191D",
"$  c #191B1E",
"%  c #171B20",
"&  c #1A1D22",
"*  c #1E2126",
"=  c #1F2328",
"-  c #202226",
";  c #22252A",
":  c #26292D",
">  c #292B2E",
",  c #262A31",
"<  c #2A2D32",
"1  c #2E3136",
"2  c #2E3239",
"3  c #313336",
"4  c #32363A",
"5  c #36393D",
"6  c #393B3E",
"7  c #363B41",
"8  c #3A3E43",
"9  c #3D4145",
"0  c #3F4348",
"q  c #424345",
"w  c #42464A",
"e  c #46494D",
"r  c #4A4B4D",
"t  c #474B50",
"y  c #4A4D52",
"u  c #4F5052",
"i  c #4F5153",
"p  c #4D5052",
"a  c #4D5055",
"s  c #4F5154",
"d  c #4E5055",
"f  c #4E5155",
"g  c #505152",
"h  c #505153",
"j  c #515255",
"k  c #515355",
"l  c #525355",
"z  c #515356",
"x  c #505357",
"c  c #535456",
"v  c #535557",
"b  c #545557",
"n  c #525355",
"m  c #515458",
"M  c #525558",
"N  c #525559",
"B  c #535559",
"V  c #535659",
"C  c #53555A",
"Z  c #545658",
"A  c #555658",
"S  c #545659",
"D  c #54575A",
"F  c #55575A",
"G  c #545659",
"H  c #585758",
"J  c #575859",
"K  c #56585A",
"L  c #56585B",
"P  c #57585C",
"I  c #56595C",
"U  c #57595C",
"Y  c #57595D",
"T  c #56595C",
"R  c #585859",
"E  c #595A5C",
"W  c #585A5D",
"Q  c #595A5D",
"!  c #5A5B5C",
"~  c #585A5E",
"^  c #595B5E",
"/  c #5B5C5E",
"(  c #5B5D5E",
")  c #5B5D5F",
"_  c #5C5D5F",
"`  c #5A5B5D",
"'  c #5B5D60",
"]  c #5C5D60",
"[  c #5C5E61",
"{  c #5D5F62",
"}  c #5D5E61",
"|  c #5E6062",
" . c #5F6063",
".. c #5F6062",
"X. c #606062",
"o. c #606162",
"O. c #606163",
"+. c #616265",
"@. c #626264",
"#. c #626365",
"$. c #636365",
"%. c #626466",
"&. c #636566",
"*. c #646566",
"=. c #646567",
"-. c #646667",
";. c #626365",
":. c #646668",
">. c #666668",
",. c #666769",
"<. c #676769",
"1. c #666768",
"2. c #686768",
"3. c #676869",
"4. c #66686A",
"5. c #67686A",
"6. c #67696A",
"7. c #67686A",
"8. c #68696A",
"9. c #68696B",
"0. c #6A6A6B",
"q. c #6A6A6C",
"w. c #6B6C6D",
"e. c #6B6D6D",
"r. c #6C6D6D",
"t. c #6D6D6F",
"y. c #6E6E6F",
"u. c #6B6B6C",
"i. c #6E6F70",
"p. c #6F6F70",
"a. c #6F6F70",
"s. c #6F7071",
"d. c #6F7071",
"f. c #717172",
"g. c #707173",
"h. c #717272",
"j. c #717273",
"k. c #757676",
"l. c #727273",
"z. c #767778",
"x. c #777878",
"c. c #797979",
/* pixels */
"      1 3 3 1 1 4 1 ; $ # # % & & * ; ; ; ; * *     o @ & * * & # @ O # - ; & @       O # & * ; ; : : : : : : - & @             ",
"    r y y r q 8 8 4 > * * * ; ; : < 1 1 3 4 4 4 4   - : 3 4 < > < < : > 1 1 : ; &   + % = : < 1 4 4 4 4 4 4 1 < - &             ",
"  e { 6.e.6.Q y e 8 1 : , < 2 4 5 8 9 q q e y r q 6 3 6 r y q 8 q w 9 9 9 9 5 1 - # % ; 2 7 8 q e e e e e e q 7 < * & & &       ",
"1 r :.g.k.g.&.L y 9 1 < 2 5 8 9 q e y j F Q ' Q y w 8 e Q / y r p f y y y y q 7 : * ; 1 8 e y M Y Q Y Y Y M y q 1 < 4 6 6 4     ",
"4 r :.g.g.t.=.Q y 9 1 < 5 9 q t f M Q { &.:.9.=./ j r p X.#.E h h j j c F M y 9 1 , 2 8 e M { #.6.9.6.:.:.| M w 4 6 p L j r 6   ",
"1 w X.q.9.=.| F r 8 1 2 8 w t f M Q { #.6.e.p.t.=.Q r h #.:.X.Q L F b F F M y q 4 1 5 e F | =.9.t.s.p.p.p.9./ r 4 6 c _ L y 5 & ",
": 6 j Q Q Y M y 9 4 1 4 0 t y j F Y Q { &.q.s.p.9._ e e { 9.6.=.#./ F j j f y q 4 1 8 y X.9.9.q.p.g.g.g.k.t.X.y 4 3 e j p q 1 @ ",
"& < q y y y e 8 4 < < 5 q y M Y Q Q Q  .6.p.g.g.2.H 8 8 F &.q.e.9.&.{ L M f e 8 < < 8 j 6.p.t.t.g.k.k.l.g.6.E e 4 < 6 q 9 5 ; + ",
"@ - 3 8 q q 6 1 : ; , 4 q f Q X.#.#.| :.g.z.x.g.X.e 3 3 e Q :.e.t.e.6.#./ f 9 1 ; : 6 h 9.g.s.g.k.x.x.g.X.h q 6 4 4 3 1 < : * # ",
"O $ : 4 q w q 8 6 4 3 4 0 f | 9.t.q.=.6.l.x.x.t.b 6 > : 6 r Q :.t.p.9.#.F e 5 : = ; 3 e X.9.q.q.t.g.t.=.r 6 4 5 8 8 5 1 < : * & ",
"O # ; 4 e j L Q E h q 5 8 y #.p.k.g.9.:.p.l.l.=.e > ; : < 5 e Q q.t.#.c q 5 1 , - * : 5 r F Q Q b h r q 5 4 9 q e e q 9 7 2 : * ",
"O # ; 4 e b | :.q.=.b w 9 e Q q.k.x.g.t.t.q.=.E 8 : < 1 , < 6 y X.#.F e 5 < < < , = * : 6 q r r q 5 < < 4 q f F M j y e 0 5 < ; ",
"+ * < 6 q p _ 9.g.g.:.L q 6 q E g.c.c.x.t._ y 9 4 4 8 8 5 5 8 q y y e 9 4 2 4 2 1 , * ; 1 5 9 9 8 5 1 5 r E X.=.#.' f e 0 7 < : ",
"$ < q y y j L #.t.s.6.Q e 4 3 q { t.g.t.X.h 8 4 4 8 q q 9 q r y r w 9 8 7 5 5 4 2 < < < 4 7 8 9 9 8 5 w Q :.t.t.:.{ M y e 9 3 > ",
"; 6 F #. ./ c c Q { Y j e 8 < < 6 w r r e q 9 9 9 0 e e e p { X.Y y w 8 7 7 7 4 1 1 5 9 q q w w 0 9 9 y =.d.g.t.#.Q M f y w 5 < ",
": 8 L #.#.Q y e y y y y e 9 < & & - : 1 5 9 w e e e y y p Q 9.e.{ m t 0 0 9 8 4 1 4 9 e e e e w 0 9 e L 9.g.t.:./ M M M f e 5 < ",
"; 4 e j f y q 9 e y y y e 9 1 ; : , < 4 9 e y y y f f M E #.t.t.{ f y e e w 9 5 4 5 q t e e e q 8 q p _ u.t.:.{ M f M M f e 5 < ",
"* > 6 9 9 9 9 q e y y y e 8 1 : < 1 1 5 w y M L Q ' ' { X.9.g.t./ f y f M f w 8 5 7 q y y y y y y y c _ 9.u.#.Q F F Q Y j e 4 ; ",
"@ - 1 5 8 9 q e y y y e q 7 < : < 2 1 5 e M ' &.6.q.q.9.9.9.t.9.Q f j Y | { f q 5 7 e y f M ' |  .{ b E 9.q.#.{ X.#.#.{ M e 3 & ",
"O $ : 1 5 9 e t t e e 0 8 2 < < 2 2 1 5 e F #.9.t.g.g.g.9.q.p.q.{ Y / #.9.:.Q y 8 9 f Y ' #.:.q.e.6./ E X.X._ { &.:.=.{ j q 1 + ",
"+ $ ; < 5 9 q w q 0 8 5 2 < 1 2 4 4 2 5 t Y :.t.t.d.g.d.9.t.g.g.q.:.9.t.t.t.#.F w e { 9.q.t.p.g.g.t.&.Q j p j L { &.=._ e 4 >   ",
"@ % * : 4 5 7 8 7 7 5 4 4 4 7 8 7 5 4 8 y / 9.p.g.g.k.s.=.=.g.k.g.g.g.k.l.t.=.F q r #.p.g.g.g.g.g.t.9.X.F r r y h b E h 6 :     ",
"    * ; ; : : : < 1 5 8 9 q w q 0 7 4 8 y { t.k.k.k.x.t.b l =.g.k.x.x.k.k.p.&.j 6 q | t.s.p.t.e.t.p.t.t.=._ h q 6 5 6 4 : & # + ",
"      & % % & ; < 5 8 q e y y e 0 8 7 9 t Y =.q.9.u.t.X.e q b #.9.t.t.t.9.=.E e 4 q { t.g.s.e.q.t.g.g.g.d.=.y 5 < = = = * & % @ ",
"          * : 4 9 e y y f f y e 0 8 9 0 q e y h r r r w 8 5 8 q r r r y j h e 6 > q X.p.g.g.g.p.p.g.k.k.t.X.q 1 < < < , , ; = & ",
"          < 4 9 y F Y Q Y F f t q 0 e e q 9 8 6 4 4 5 5 7 5 4 4 4 8 q r j j y q 4 q E =.t.g.l.g.g.p.t.9.X.c 8 1 4 4 4 2 1 < ; * ",
"        < 4 q y Q X.=.:.:.| F y e t f f t q 6 4 4 5 8 0 0 0 0 q q f { :.9.9.9.{ r q w h { 9.g.l.g.9._ j q 6 5 5 7 8 7 4 4 2 : = ",
"      1 4 8 e F =.t.g.s.t.:.Y c M Y Q ' Q f 9 4 5 9 w e e e e y M | e.g.g.g.g.q.{ u 9 9 p _ =.9.=.Q r 8 1 < 5 8 0 0 8 7 8 5 < ; ",
"    , 4 8 q r _ g.x.x.k.s.:./ Y #.:.:.9.q.#.e 6 9 e t t t t y M | 9.t.t.9.9.e.t.t.X.r 8 q r y y r q 7 4 3 4 9 q w q 9 9 q 9 3 : ",
"  ; 1 7 q r r _ g.x.x.k.p.6.| #.9.p.s.l.k.9.r 6 q t e e e e t M #.q.t.q.&.#.=.e.g.9.y 8 0 q q 9 8 5 2 2 5 9 w e e q 0 q e 0 4 < ",
"@ ; 5 q y p p E 9.g.k.g.t.9.9.q.p.g.k.x.x.9.r 5 9 w q 0 9 0 w y Q &.e.q.X./ { =.t.6.y 9 t f f y e 9 4 4 9 w e e w w w e e 0 4 > ",
"% : 8 e f M L E _ =.g.g.t.t.t.g.k.k.x.k.t._ q 1 7 9 9 8 8 0 e j / &.9.6./ F L | q.=.y w M ' { / j w 5 4 0 e t t e e y y t 9 3 : ",
"* < 9 y f Q #.X.E _ t.k.g.p.s.l.x.x.k.9.j 6 > ; 1 5 8 8 9 e c ' &.9.9.#.c y f / :.#.y r / :.9.=.Y e 5 4 9 e t y y y M m y 9 1 ; ",
"; 1 0 y f / 9.=.E E 9.g.g.g.g.g.g.t.=.L q > * - 1 7 9 0 q y L | 6.q.6.| f e y F _ Q y y X.q.q.=.F q 4 4 9 e t y M Y / Y f q 3 ; ",
": 2 9 y f / 9.9.=.X.X.9.g.k.g.t.| h w q w 8 < > 5 9 w e t y M ' =.9.6.#.M y y y y r e c #.9.=./ y 9 4 4 9 e t j { &.&.{ M e 4 ; ",
"; 1 9 e f Q 6.t.q.=.X.&.9.t.9._ r 5 > 4 e e 3 < 5 q e y y f M ' =.9.q.:.{ F f y 9 q y Q #.=.{ F y 9 4 1 5 9 e j #.9.6.X.c w 4 * ",
"& < 8 e y Q 9.t.t.q.6.=.X._ p q 8 4 < 4 e e 4 < 4 8 e y y f F { 6.t.t.t.:.{ F r 8 q L #.#.| / F f e 4 , < 4 8 y { :.6._ r 5 : # ",
"# : 5 q y Q q.g.g.t.9.:.$.H q 5 9 9 5 8 w w 8 4 3 5 9 q e y c / &.6.9.=.| L y q 5 q _ 9.6.=.| Q f q 3 ; ; < 8 r F _ _ b q 1 * + ",
"@ - 4 9 t Q t.k.g.t.9.9.u.X.r q c F y q q q q 9 5 3 4 5 9 q y j L L c y e 9 5 < > q _ t.g.g.9._ r 5 : * ; 1 9 e r t e q 7 1 * @ ",
"@ * < 5 w Y e.l.g.t.e.t.t.=.h r _ #./ F p y y q 5 < < 1 8 q e r y r e 9 6 1 ; - > q E 9.t.t.=.E w 4 : > 6 q r t w 0 8 8 7 2 ; # ",
"  * ; < 8 f &.t.s.g.g.p.9.{ j b #.9.q.6.#.Q j e 5 < < 4 9 q e e e e e q q 6 < > 5 e b _ E F c y q 5 1 6 j / Q M y w q 0 8 4 : & ",
"    & ; 4 e / 6.p.l.l.t.| L E X.9.g.g.g.9.| M e 5 4 9 w r y t e e e t y f r 6 6 r b _ E h r e q 0 8 6 e X.6.&./ f y e w 9 5 : & ",
"    * = : 6 y | p.l.p.&.h h X.t.k.k.k.p.=.Q f e 8 q F _ L j y y y y y M { _ r r _ 2.9.=.L y e q 9 9 q j :.t.9.#.L f y e 0 7 : & ",
"    = ; : 4 q c &.6.| j q r =.k.k.k.g.q.{ F f e 8 r X.9.&.{ F f y y f Q =.#.b b 9.g.k.p.#.M t 0 8 9 e E 9.g.t.&.Q f y e w 8 , & ",
"    ; , 2 4 5 9 e e q 5 4 r 9.g.p.q.:.{ Q j y e 8 r #.t.t.9.X.Y f y f Q =.#.j E t.x.x.z.e.{ f q 8 8 e E 9.s.t.=.Q j y t e 8 < & ",
"    < 4 8 8 7 6 8 6 < ; > q X.9.&.{ Q F f y e 9 8 r =.p.p.q.&.Q f y f Y &.X.h F t.x.x.x.g.:.L e 8 8 w b 9.g.t.:./ m y t e 8 < $ ",
"@ ; 2 8 q e e e e q 8 1 > 4 r b F M f y e 9 6 5 6 h =.s.e.:.{ Y f y y F X.X.b F :.g.k.k.l.t.| j q 8 8 h 9.g.g.q.{ M y t w 8 : @ ",
"# : 5 q y c Y Q Q F y 9 3 < 5 9 q q 9 8 5 4 < < 4 r =.t.9.#.' F f y f Y X.X.b b X.q.s.g.g.t.#.F e 8 5 r =.g.g.q.{ F f t 0 5 ; + ",
"& < 8 y F | 6.t.t.:.Q y 8 2 < > < < > : : ; * - > e X.t.6.#.' F f f M ' =.X.j p _ :.q.t.t.9.| F y 9 5 q _ 9.t.t.X.F f e 8 2 ; O ",
"; 1 0 f Q &.q.t.t.6.{ j q 5 < * % % & - ; ; * - > e =.t.u.=.{ L f f F { &._ r q c / | #.#.| Y f e 8 4 8 y _ 9.9.X.F y q 4 < =   ",
": 4 q f Q {  .| { Q M f e 9 4 : & & < 2 4 2 1 1 4 r 9.g.g.9.| F f f F / { c 6 3 q r y f f y e q 9 7 2 3 6 r X.=.{ M t 8 1 ;     ",
": 4 q f M M j f y y y y e q 7 < * ; 4 8 9 8 5 5 9 h =.t.9.=.Q f e e y j c h q q w q 8 8 8 8 8 7 5 4 < , > 6 h E c y q 5 : &     ",
"; 4 q y t e q 9 9 9 0 w t w 8 2 ; < 8 e y e 8 8 y j b b F j r q 8 6 8 q r b _ { Q y 5 : : < < 1 2 < : : < 4 8 q 9 8 4 < - %     ",
"* 1 q e w 0 8 8 9 q e e t w 8 2 : 1 q M / L e q j M r q 9 9 6 4 1 4 8 w r E :.9.| j 6 ; & & ; : , < 3 6 q q 6 4 4 4 1 , * #     ",
"# < 9 e e e w e f M F M y w 8 2 : 4 y { t.9.M y F L r 8 3 > , : : 6 h Q Q { #.#.Q y 9 1 ; & * * * 1 q j _ Q r 8 8 8 7 2 ; &     ",
"+ : 7 0 e t y j { #.#./ f w 7 < ; 4 p #.g.p.{ Y | ' y 5 ; # & & & 4 j / / / ' Y f e 0 4 ; * < < : 5 h X.9.&.j e e t e 9 1 ; &   ",
"  ; 1 5 q y y Y q.p.6.' y 9 5 < * 3 j #.9.9.&.&.q.#.r 1 ; % % % & > 8 r f f f y e q 9 4 ; > 8 q 5 q / 9.q.#.j t m Y Q j 9 < * o ",
"    ; 1 9 e y Y q.p.&.L e 8 2 ; & 3 p X.9.e.q.6.6./ q 3 6 6 6 4 < > 1 5 q e e q 9 8 7 2 ; 1 w e 8 e _ 9.u.#.j y Y { #.Q w 2 = O ",
"    & , 5 9 w f ' { M y 9 4 , * & 3 r | g.k.s.:.L w 3 6 b _ Q f 9 4 1 3 6 9 q 9 7 2 2 < : 3 q e 8 q Q =.9.=.F f Y  .&.{ e 4 ; @ ",
"      ; < 4 8 w y y q 8 4 < = & * < q b :.e.=.L q 4 6 r X.9.&.Q r 8 4 1 3 5 9 8 4 < < , : 3 9 0 4 6 h _ 2.=.E c Q  .=.{ w 3 ; # ",
"        * : 1 5 8 8 4 < : * & * ; > 1 6 e r w 6 < 4 y / #.&.{ F e 9 7 2 : < 5 7 4 1 , ; ; < 7 7 1 1 q h X.&.Q F Q | &./ q 2 ;   ",
"        @ & = : < < : * & # % * ; : ; ; < < : & # 3 r E L F j y q 8 4 < * * < 4 2 < ; = - : 2 1 ; ; < q j F p y j F E h 8 <     ",
"          @ @ # $ $ # @ @ @ @ $ - -             @ ; 5 9 9 8 8 6 4 1 : * @ + & ; ; - &       & & # @ $ : 4 5 4 5 q q 6 4 > *     ",
"            X X . X X o       @ $ $             @ $ ; : > < < < > : * # o . .               . . X X X o + # $ ; 3 3 ; $ @       "
};
