/* XPM */
static char *result[] = {
/* columns rows colors chars-per-pixel */
"32 32 180 2 ",
"   c #000000",
".  c #0C0000",
"X  c #150000",
"o  c #1B0000",
"O  c #230000",
"+  c #2C0000",
"@  c #320000",
"#  c #3C0000",
"$  c #391925",
"%  c #352738",
"&  c #430000",
"*  c #4B0000",
"=  c #530000",
"-  c #5B0000",
";  c #5A111B",
":  c #5D0D16",
">  c #630000",
",  c #6C0001",
"<  c #6F050A",
"1  c #730000",
"2  c #7D0101",
"3  c #67131D",
"4  c #770E18",
"5  c #571723",
"6  c #4F1824",
"7  c #631724",
"8  c #741C29",
"9  c #52364B",
"0  c #643043",
"q  c #45415D",
"w  c #67587B",
"e  c #830000",
"r  c #8C0000",
"t  c #940000",
"y  c #9C0000",
"u  c #900F18",
"i  c #A40000",
"p  c #AC0000",
"a  c #B40000",
"s  c #BB0000",
"d  c #B5050A",
"f  c #AB0E18",
"g  c #B50B12",
"h  c #B90C15",
"j  c #B5131D",
"k  c #971825",
"l  c #AE1824",
"z  c #A61824",
"x  c #B51824",
"c  c #BB1926",
"v  c #B61E2D",
"b  c #9C2637",
"n  c #B52434",
"m  c #B9283B",
"M  c #C00000",
"N  c #FF0000",
"B  c #FF060B",
"V  c #FF080F",
"C  c #FF0D16",
"Z  c #FF131E",
"A  c #FF1926",
"S  c #FF1D2B",
"D  c #FF212F",
"F  c #FF2334",
"G  c #FF2738",
"H  c #FF2A3C",
"J  c #833A51",
"K  c #B42F42",
"L  c #B82D41",
"P  c #B53145",
"I  c #B43F59",
"U  c #B63D55",
"Y  c #FF2E41",
"T  c #FF3146",
"R  c #FF344A",
"E  c #FF3E56",
"W  c #B7425D",
"Q  c #B45070",
"!  c #B24A68",
"~  c #FF425B",
"^  c #FF4661",
"/  c #FF4C69",
"(  c #FF5374",
")  c #FF577A",
"_  c #3C6890",
"`  c #36739F",
"'  c #645E82",
"]  c #5C719A",
"[  c #67729E",
"{  c #65638A",
"}  c #457EAF",
"|  c #5474A2",
" . c #B55E82",
".. c #8C668D",
"X. c #B76289",
"o. c #B86E99",
"O. c #867FAF",
"+. c #B57AA9",
"@. c #A673A1",
"#. c #FF5F85",
"$. c #FF6286",
"%. c #FE658B",
"&. c #FE6A93",
"*. c #FE6F99",
"=. c #FF7099",
"-. c #FE7DAD",
";. c #FE75A2",
":. c #FD7FB2",
">. c #5F8BBF",
",. c #6080AF",
"<. c #7885B6",
"1. c #3DA1DE",
"2. c #599FD9",
"3. c #679FD9",
"4. c #669CD6",
"5. c #6F96CE",
"6. c #62AFF1",
"7. c #68ACEA",
"8. c #8781B0",
"9. c #9485B7",
"0. c #A281B0",
"q. c #B381B0",
"w. c #BC81B0",
"e. c #B585B8",
"r. c #B788BD",
"t. c #C182B2",
"y. c #FD84B6",
"u. c #FD89BD",
"i. c #FE86BB",
"p. c #9596CD",
"a. c #B38DC1",
"s. c #B88DC1",
"d. c #B691C7",
"f. c #B893CA",
"g. c #A99CD5",
"h. c #B59FD9",
"j. c #BA9FD9",
"k. c #B699D2",
"l. c #A591C7",
"z. c #AAA3DF",
"x. c #BFA0DD",
"c. c #98B8FC",
"v. c #89B6FA",
"b. c #B9ACED",
"n. c #B8A6E4",
"m. c #A9B6FA",
"M. c #B9B3F3",
"N. c #BDB6FA",
"B. c #BAB8FB",
"V. c #B2BAFD",
"C. c #C08EC6",
"Z. c #FD8DC2",
"A. c #FD92C7",
"S. c #FC93CA",
"D. c #F699D2",
"F. c #FA9CD6",
"G. c #F59FD9",
"H. c #F99FDA",
"J. c #FB97D0",
"K. c #EDA1DE",
"L. c #F7A0DC",
"P. c #C3B5FB",
"I. c #CBB6FB",
"U. c #C3B9FD",
"Y. c #CCB9FD",
"T. c #DBB3F4",
"R. c #D4B6FC",
"E. c #DCB6FA",
"W. c #D3B9FD",
"Q. c #DDB9FC",
"!. c #EFAAE9",
"~. c #FAACEB",
"^. c #F5A9E9",
"/. c #E4B5F7",
"(. c #E3B7FB",
"). c #E9B5F9",
"_. c #E5B8FB",
"`. c #EBB6F8",
"'. c #F3B2F2",
"]. c #F1B7FC",
/* pixels */
"                                                                ",
"    O @ + + + + O @ & * = = = * * * * * # @ o X X o O O O o     ",
"  O 1 1 1 1 > - > r i s s M s s s a a p y 1 = + @ * = - > - o   ",
"  + 1 1 1 , 0 ] <.9.q.w.t.t.t.w.w.w.q.q.0.8.,._ % & = - > > +   ",
"  + 1 1 , ' 7.V.U.W.R.Q.Q.Q.Q.Q.Q.Q.Q.Q.R.Y.B.c.1.% & - - - O   ",
"  + , , 7 3.W.~.*.$.$.$.$.$.$.$.$.$.$.$.$.$.%.D.m.` & * = - O   ",
"  + > - : 5.c.Q./.*.B N N N ^ Z.A.A.u.u.=.D N #.B.,.# # * * O   ",
"  O - = - 8 ..l.B.A.C N N C S.U.B.U.U.Y.W.y.B y.c.' * & # & o   ",
"  O - 1 e t i I I.Z.B N N F ^.n.U P U  .B.F.A Z.c.J , - * & o   ",
"  @ e t y p a X.R.-.N N N R /.d.g a s n b.~.$.~.m.b t e 1 , O   ",
"  & y p d s M C.(.) N N N ( E.e.a s a j f.W._.W.a.f i y t r #   ",
"  * a a d M M C.).R N N N -.I.X.a a a a m +.d.o.v a p p p i &   ",
"  * s s M M c C.!.F N N B Z.U.I d g g g d a d a a a a a a a &   ",
"  * s s M s m N.J.Z N N Z D.B.d.s.d.d.d.+.n a a a s a a a a *   ",
"  = s s s s W I.u.B N N C Z._._._._.(._.W.k.x a a a s a a a *   ",
"  * s s s s o.R.;.N N N N D ~ ^ E R T ^ ~.N.K a a s a a a a *   ",
"  * s s s d e.(./ N N N R Z.S.A.A.A.A.F.(.n.v a a a a a a a &   ",
"  * a s s h f.).T N N N -.Y.B.B.B.B.N.P.n.X.p a a a a a a a *   ",
"  * a s s v n.^.S N N V Z.B.Q K K K K P v a a a a a a a a p &   ",
"  * p a s L U.A.Z N N S L.b.n a a a a a a d a a a p a p p p &   ",
"  & i i p ! I.u.N N N H `.k.j a a a a j X.a.+.n p p i i y t #   ",
"  @ e t y @.I.&.N N N ~ /.r.d s a a j e.U._.U.a.f i y r 2 1 +   ",
"  O - , e p.R.^ N N N &.R.+.a a a a W N.~.-.].g.k t 1 , - * o   ",
"  o & * : 5.(.H N N N i.I. .n n n K e.W.&.R (.p.u , = # + + .   ",
"  o * & q 6.!.A N N V Z.B.B.M.M.M.B.N.!.G #.W.8.> & + O O @ X   ",
"  O ; | 6.c.y.B N N N $.D.L.G.L.F.S.Z.( B y.V.w * + O + # & o   ",
"  O w v.Q.y.T F G H G G H T H T Y H G G R H.v.9 + O + & * * o   ",
"  + { c.Q./.T.T.T.(._.'.'.'.'.'.'.'.'.'.).B.3.$ O + # * = - O   ",
"  + 7 [ 4.3.2.2.4.p.p.k.j.j.x.x.x.h.h.g.p.<.9 + O # & * - - o   ",
"  o , > : 7 5 6 5 4 k l x x x x l x x z k < & O O # * = - = X   ",
"    o + O + O O O + # * * * * * * * & & # + X . X X o O O o     ",
"                                                                "
};
