/* XPM */
static char *_58f0febec9f49e3c2fb7576c3d366d0IpwapsTwlrP1BRw2[] = {
/* columns rows colors chars-per-pixel */
"32 32 5 1 ",
"  c #0E3A2B",
". c #165F2D",
"X c #238721",
"o c #47B629",
"O c #92DB3A",
/* pixels */
"O....  ..       .... ..XXX.  .OO",
"OO.  OOX..     .ooX.  ..XX  ...X",
"XX  ..OOX... ....XXX. .       ..",
".......Xo.Xoo.....XX XoX.    ...",
"....XX..XXXX.OoX. ..XXX.  .....o",
"X....XX  XX .oX. .  ..   ..oOOoX",
" oOO..    ..XX   ..  .......oOO ",
"oOOo  .... ....XOOX. ..XOO...XX ",
"XX.  .   .  ..XooX....XOO  ....X",
".....   .OX  XXX.   ..XX  .ooX  ",
" ...   ..XOX.XX.   .. ......XXX ",
"..XOo.....XoX  ......  .oOOo....",
"Oo.XOOo  ..XX     .O..  .XOO..oO",
"X...XXX O.....   ..OX.....oO..OO",
"   ....oOo....XOOX.XX  ...XX Xo.",
"  ......oOo.  ..OOX ..OOo..X XX ",
"..XOOX...XX  .  .XXX OOo  X..X..",
" ..XooX .oOo...  ...XX   XX  .. ",
"....XXX  OOX..OOOo...OOo.X  .   ",
"OOo.....XOX   .XoOo.OOo  ....  .",
"Oo  ....XX   ...XXX XX  .OOX...O",
"o  ....  .........      .oOOX  X",
" ..XOOX.   .XOOX....   ...oOoX  ",
"....XOOX. .XOX  .XOOX .XX..ooX  ",
"XOOo..XXX.XXX  ....Xo.XX  ......",
"OOo..... ...O.......XX.  .  ...X",
"  ......   OO..OOX.   .o...  .XX",
"..   .OOX. Oo...OOX.   oO..  ...",
".   ...XoX o  ...XX   ..Oo..OoX.",
"   .... XX .oOO...   ....o.oOX. ",
"...XOO  ..XoOO  ....XOOoX.XoX   ",
"..XXX.    ..      ....XOo XX.  ."
};
