/* XPM */
static char *_b3850258fe94ee398490b6fc8232ddbsykZU2vYK9L9FJLz[] = {
/* columns rows colors chars-per-pixel */
"32 32 50 1 ",
"  c #7E4D2F",
". c #824B2D",
"X c #834C2E",
"o c #844D2F",
"O c #874E30",
"+ c #884F30",
"@ c #815030",
"# c #865232",
"$ c #8D5333",
"% c #8E5433",
"& c #8A5534",
"* c #8F5534",
"= c #8F5936",
"- c #955235",
"; c #915735",
": c #985537",
"> c #975B37",
", c #9B5739",
"< c #9D5738",
"1 c #9E5A3A",
"2 c #9C5F3B",
"3 c #9F5D3C",
"4 c #A05B3B",
"5 c #A05C3B",
"6 c #A25E3D",
"7 c #A45F3E",
"8 c #9F613C",
"9 c #A6613F",
"0 c #A76341",
"q c #A76441",
"w c #AA6743",
"e c #AB6845",
"r c #AD6A47",
"t c #AF6D49",
"y c #B06E49",
"u c #AF704A",
"i c #B0714A",
"p c #B2734C",
"a c #B4724C",
"s c #B3744D",
"d c #B4754E",
"f c #B5784F",
"g c #B67950",
"h c #B97B52",
"j c #B97D53",
"k c #BA7F54",
"l c #BC7F55",
"z c #BC8357",
"x c #BF8659",
"c c #C08559",
/* pixels */
"XXXoooX.XO+O+$>82;%**;;;***%%%$$",
"ggjkzzx=sdiiiisfgggjkkkkkjk=psfg",
"tissdgj=rwwwwwrtttussssssss=ertt",
"90werti&76111156990wwweewww=6799",
"=======#&&&&&&&#####&&&&========",
"jj=dssdggggkzzzzz=ssdfhjjjzzzgzx",
"jg=trrtuiiipddddk=trrrtiiiiiiidj",
"ty=9796999qwrrrri=99990wwwwqqwet",
"==&&&&&&&#&&&&&&#&&&&&&=========",
"fhhzxcczz&ddddhhhhhzcczzzx=spddf",
"uurtiiiil&wwrrtyyyisdddidj=rrrty",
"00qwerrrt&:4790qqqwwrrrrri=99000",
"=&&#@ &&#@====&&#@@@&&==========",
"gjkkz&ttpdffgjzzzzx&pdhjkzgghggj",
"upssh&93qwtttupsssh&ewwrttttttip",
"werrt&61666669wwwwr=77700qqqqwwe",
"===&&#==========================",
"ggggghkkj=rtysfjjjzjjjzzzcz=hhjg",
"ttttyissg=w0wrttrrttypsssgj=trtt",
"66600qwrr=64,13333000wrrrrw=7660",
"==&&&&&&##@@@@ #&&&&&&&&&&&=====",
"l=iiiahjjjjjjl@tiiddddhhjkzzzzkk",
"j=q00wrtyyyyyi#00qweeeeeertyyuid",
"r=1<<16990000w#<<<1444445669990w",
"===&&&&&&######################&",
"dgjjh=idddjzzzkkkkzzzzk=taddzhdh",
"ttiip=0wwerrrrrrrridddg=wwwerrri",
"690q0=,1166666666690wrt=7679000w",
"&&&&&&&&&&&&&&@@@ @@&&&&&&&&&&==",
"gg=piiipddhhhgjlk&dhdfhdddddfdfj",
"iu=wwwwwwrrrrrtis=wwwwrrrrrrrrru",
"ww=444414555569ww#--:,116666699w"
};
