/* XPM */
static char *ee6c7942d9604ae0f77f7985c7aaddfbjC0TqFNXUyx0SDWe[] = {
/* columns rows colors chars-per-pixel */
"32 32 33 1 ",
"  c #2B1835",
". c #2C1937",
"X c #311B3B",
"o c #311C3D",
"O c #2E2235",
"+ c #33273A",
"@ c #361F41",
"# c #362042",
"$ c #382B40",
"% c #3B2248",
"& c #3D244B",
"* c #40264D",
"= c #413546",
"- c #42334A",
"; c #43334C",
": c #45354E",
"> c #45394B",
", c #473C4D",
"< c #473751",
"1 c #4C3F52",
"2 c #4C4053",
"3 c #4E4155",
"4 c #55465B",
"5 c #5B4D63",
"6 c #5C4C63",
"7 c #5F4F67",
"8 c #5B4B6E",
"9 c #62526A",
"0 c #6D5A7D",
"q c #756183",
"w c #766284",
"e c #7E698B",
"r c #877193",
/* pixels */
"********************************",
"rrr*rrrrrr*999999*rrrrrr*rrrrrr*",
"999*999999*999999*999999*999999*",
"<<<*<<<<<<*999999*<<<<<<*999999*",
"********************************",
"999999*rrrrrr*999999*rrrrrrr*999",
"999999*999999*999999*9999999*999",
"<<<<<<*999999*999999*<<<<<<<*<<<",
"********************************",
"rrr*999999*rrrrrr*999999*rrrrrr*",
"999*999999*999999*999999*999999*",
"<<<*999999*<<<<<<*999999*999999*",
"********************************",
"999999*999999*rrrrrr*rrrrrrr*rrr",
"777777&777777&777777&7777777&777",
"777777&::::::&777777&:::::::&777",
"&&&&&&&&&&&&&&&&&&&&&&&&&&&&&&&&",
"555%eeeeee%eeeeee%eeeeee%566555%",
"555%555555%555555%555555%566555%",
"555%;;;;;;%555555%555555%;;;--;%",
"###########################@@@##",
"wwwwww#444444#wwwwww#4444444@qww",
"444444#444444#444444#4444444@444",
"$$$$$$o333333o$$$$$$o3333333X233",
"oooooooooooooooooooooooooooXXXoo",
"333o000000o333333o000000o333123o",
",,,.,,,,,,.,,,,,,.,,,,,,.,,>>>,.",
"+++.,,,,,,.++++++.,,,,,,.,,>>>,.",
"............................ ...",
"888888O888888O888888O8888888O888",
"======O======O======O=======O===",
"OOOOOOOOOOOOOOOOOOOOOOOOOOOOOOOO"
};
