/* XPM */
static char * p_left_xpm[] = {
"32 32 692 2",
"  	c #E0B640",
". 	c #E5C641",
"+ 	c #E4D256",
"@ 	c #E5C53F",
"# 	c #E5C43F",
"$ 	c #E1C957",
"% 	c #DCB042",
"& 	c #D29E35",
"* 	c #D09C34",
"= 	c #D4A536",
"- 	c #DFBD3B",
"; 	c #C8AE35",
"> 	c #C1A833",
", 	c #D3B534",
"' 	c #CDAD35",
") 	c #BB9536",
"! 	c #C89C37",
"~ 	c #E0B237",
"{ 	c #E6C135",
"] 	c #E7C535",
"^ 	c #E4BD35",
"/ 	c #DBA836",
"( 	c #CE9734",
"_ 	c #CC9434",
": 	c #CE9634",
"< 	c #CF9834",
"[ 	c #D09B34",
"} 	c #D09C36",
"| 	c #D09F3E",
"1 	c #E2CA57",
"2 	c #E1C03E",
"3 	c #E0BC3C",
"4 	c #DDAF38",
"5 	c #DBAA38",
"6 	c #D7A83D",
"7 	c #DEB038",
"8 	c #E2BB37",
"9 	c #DEBD3D",
"0 	c #C7AC3D",
"a 	c #B5A94C",
"b 	c #5B5E3C",
"c 	c #303F39",
"d 	c #81773B",
"e 	c #74693A",
"f 	c #263434",
"g 	c #716535",
"h 	c #C0A43A",
"i 	c #C5AB37",
"j 	c #CDB035",
"k 	c #E0B935",
"l 	c #DBAB36",
"m 	c #D29B35",
"n 	c #DBA936",
"o 	c #DEAF36",
"p 	c #E1BA35",
"q 	c #E2BC35",
"r 	c #E2BE3C",
"s 	c #E0C657",
"t 	c #DAAE41",
"u 	c #D3A136",
"v 	c #D3A034",
"w 	c #D4A035",
"x 	c #D5A235",
"y 	c #DDAD36",
"z 	c #E4BE35",
"A 	c #E6C63B",
"B 	c #D5C150",
"C 	c #626339",
"D 	c #384946",
"E 	c #173449",
"F 	c #09314F",
"G 	c #233E4E",
"H 	c #1F3849",
"I 	c #05263E",
"J 	c #1F343F",
"K 	c #3F4E4B",
"L 	c #3E4942",
"M 	c #6E6234",
"N 	c #CB9934",
"O 	c #D09934",
"P 	c #DBAC35",
"Q 	c #E2BB35",
"R 	c #E5C035",
"S 	c #E3BD35",
"T 	c #E1BA37",
"U 	c #DDB341",
"V 	c #D29E34",
"W 	c #D39E34",
"X 	c #DCAC35",
"Y 	c #E4BC35",
"Z 	c #E2BB36",
"` 	c #C7A13D",
" .	c #353C35",
"..	c #022946",
"+.	c #082F4D",
"@.	c #072E4C",
"#.	c #072D4B",
"$.	c #072D4A",
"%.	c #072B47",
"&.	c #072F4E",
"*.	c #073558",
"=.	c #032C4A",
"-.	c #484534",
";.	c #B78934",
">.	c #D09D34",
",.	c #DFB735",
"'.	c #E3BE35",
").	c #E2BA35",
"!.	c #D39F34",
"~.	c #D29D34",
"{.	c #D29B34",
"].	c #E5C135",
"^.	c #DEAF37",
"/.	c #CE9A34",
"(.	c #9B7733",
"_.	c #012337",
":.	c #072C48",
"<.	c #062741",
"[.	c #052339",
"}.	c #052238",
"|.	c #072843",
"1.	c #083150",
"2.	c #192A35",
"3.	c #6A5B33",
"4.	c #CDA236",
"5.	c #E1BB35",
"6.	c #DCAC36",
"7.	c #D5A135",
"8.	c #D4A134",
"9.	c #DDAC37",
"0.	c #E2BD35",
"a.	c #E1B935",
"b.	c #D19A35",
"c.	c #CF9835",
"d.	c #CF9B34",
"e.	c #947636",
"f.	c #002948",
"g.	c #093352",
"h.	c #093353",
"i.	c #082F4E",
"j.	c #072A46",
"k.	c #072A45",
"l.	c #083354",
"m.	c #082A46",
"n.	c #554B33",
"o.	c #C69936",
"p.	c #D6A335",
"q.	c #D5A334",
"r.	c #D5A335",
"s.	c #DCAD36",
"t.	c #E3BC36",
"u.	c #E4BC36",
"v.	c #D19D34",
"w.	c #D4A034",
"x.	c #D29C35",
"y.	c #E0B835",
"z.	c #A28B37",
"A.	c #002847",
"B.	c #082A45",
"C.	c #062C43",
"D.	c #052D44",
"E.	c #092E49",
"F.	c #093151",
"G.	c #082E4C",
"H.	c #08304F",
"I.	c #083252",
"J.	c #0B2D47",
"K.	c #554C33",
"L.	c #C49735",
"M.	c #E1B835",
"N.	c #D19E34",
"O.	c #DDAC38",
"P.	c #DEB13D",
"Q.	c #E2BC37",
"R.	c #C19E36",
"S.	c #303A38",
"T.	c #192B3B",
"U.	c #908373",
"V.	c #A88C73",
"W.	c #5B524F",
"X.	c #06253D",
"Y.	c #06253C",
"Z.	c #062842",
"`.	c #082E4D",
" +	c #042946",
".+	c #414539",
"++	c #AE9435",
"@+	c #DCB635",
"#+	c #D29F34",
"$+	c #D4A234",
"%+	c #D4A334",
"&+	c #D39E35",
"*+	c #E3C23E",
"=+	c #E5C137",
"-+	c #E5C33C",
";+	c #E3CB54",
">+	c #E5C33D",
",+	c #D5AE35",
"'+	c #846443",
")+	c #8E7C6C",
"!+	c #998570",
"~+	c #997D65",
"{+	c #907560",
"]+	c #5A4F4A",
"^+	c #1A2635",
"/+	c #12283D",
"(+	c #0B2E4A",
"_+	c #022741",
":+	c #554F34",
"<+	c #D3A436",
"[+	c #DEAC37",
"}+	c #DDAB36",
"|+	c #D4A135",
"1+	c #E4CF57",
"2+	c #E6C73C",
"3+	c #E7C435",
"4+	c #E5BF37",
"5+	c #E0B53E",
"6+	c #DDAD39",
"7+	c #DAA936",
"8+	c #CE9A36",
"9+	c #B57C50",
"0+	c #D6AD8B",
"a+	c #8A7059",
"b+	c #8A7B71",
"c+	c #CBA68B",
"d+	c #BC9170",
"e+	c #91685B",
"f+	c #6A4940",
"g+	c #2A3033",
"h+	c #032238",
"i+	c #524B32",
"j+	c #CB9A34",
"k+	c #D6A435",
"l+	c #DDAC36",
"m+	c #E1BD3E",
"n+	c #E3BE37",
"o+	c #E2BB41",
"p+	c #E6C337",
"q+	c #E0B136",
"r+	c #DAA636",
"s+	c #CF9734",
"t+	c #D39D37",
"u+	c #D9AD89",
"v+	c #A27555",
"w+	c #C2AC9E",
"x+	c #EECAB1",
"y+	c #EEB284",
"z+	c #D08E6D",
"A+	c #925938",
"B+	c #423118",
"C+	c #001C2E",
"D+	c #545132",
"E+	c #D7B436",
"F+	c #E2C03C",
"G+	c #E5C33B",
"H+	c #E4CB51",
"I+	c #E3C03C",
"J+	c #E5BF35",
"K+	c #DBA937",
"L+	c #CD9534",
"M+	c #D09935",
"N+	c #A5713B",
"O+	c #D6A47A",
"P+	c #D09469",
"Q+	c #E2B798",
"R+	c #F3C3A1",
"S+	c #EDA881",
"T+	c #B57753",
"U+	c #664222",
"V+	c #282722",
"W+	c #374031",
"X+	c #938433",
"Y+	c #DEBE3C",
"Z+	c #E1CA51",
"`+	c #E2C13E",
" @	c #DBAF3E",
".@	c #D29F36",
"+@	c #DAA736",
"@@	c #DCA837",
"#@	c #DAA536",
"$@	c #DEAA38",
"%@	c #D6A334",
"&@	c #A57724",
"*@	c #B78350",
"=@	c #DF9C74",
"-@	c #EAA37F",
";@	c #E9A27F",
">@	c #D68A6F",
",@	c #9D5E3F",
"'@	c #4A3624",
")@	c #0D242E",
"!@	c #5C5F37",
"~@	c #A59234",
"{@	c #AC8F33",
"]@	c #A48737",
"^@	c #AC8833",
"/@	c #C99734",
"(@	c #D09A34",
"_@	c #E0AE38",
":@	c #D09835",
"<@	c #DBAA36",
"[@	c #E0AF37",
"}@	c #DAA537",
"|@	c #C69130",
"1@	c #A16F22",
"2@	c #AF6C46",
"3@	c #BC7157",
"4@	c #B26D58",
"5@	c #935B48",
"6@	c #784B35",
"7@	c #4D3D2F",
"8@	c #313E2E",
"9@	c #495330",
"0@	c #515A32",
"a@	c #575F35",
"b@	c #555D33",
"c@	c #625F30",
"d@	c #A27F31",
"e@	c #D4A435",
"f@	c #DEB039",
"g@	c #E1BE3D",
"h@	c #DCAA37",
"i@	c #DBAD37",
"j@	c #DFB435",
"k@	c #D19C35",
"l@	c #CC9433",
"m@	c #C28E2E",
"n@	c #7E5A19",
"o@	c #5C3E10",
"p@	c #4A3D1D",
"q@	c #3E4026",
"r@	c #404327",
"s@	c #43492B",
"t@	c #4E5833",
"u@	c #5B663A",
"v@	c #6B7642",
"w@	c #818C51",
"x@	c #7E8C58",
"y@	c #626E40",
"z@	c #656632",
"A@	c #AE9735",
"B@	c #DABC3E",
"C@	c #E4CB4E",
"D@	c #E1BE3C",
"E@	c #CF9935",
"F@	c #DCAD37",
"G@	c #E2BD3B",
"H@	c #E5C43D",
"I@	c #E4CE54",
"J@	c #E0B834",
"K@	c #D2A034",
"L@	c #CB9A37",
"M@	c #AD8F3F",
"N@	c #565231",
"O@	c #2B2E1F",
"P@	c #30331E",
"Q@	c #3C4427",
"R@	c #4A5430",
"S@	c #555F36",
"T@	c #596439",
"U@	c #606C3E",
"V@	c #798449",
"W@	c #9DA661",
"X@	c #A5B477",
"Y@	c #82915C",
"Z@	c #626D3F",
"`@	c #686933",
" #	c #AE9937",
".#	c #D6AB3C",
"+#	c #D19E36",
"@#	c #E4CC51",
"##	c #E2BF3E",
"$#	c #DDB13D",
"%#	c #DBA938",
"&#	c #D8A936",
"*#	c #B7A14A",
"=#	c #748176",
"-#	c #435F74",
";#	c #212F39",
">#	c #151612",
",#	c #13140F",
"'#	c #292E1B",
")#	c #474F2D",
"!#	c #586238",
"~#	c #64703F",
"{#	c #7F894C",
"]#	c #9FA966",
"^#	c #99A971",
"/#	c #717F4D",
"(#	c #5B6539",
"_#	c #6C6430",
":#	c #BA8B32",
"<#	c #DBB03F",
"[#	c #E1BF40",
"}#	c #E3CE57",
"|#	c #E1BE3E",
"1#	c #DBAF3D",
"2#	c #D29E36",
"3#	c #CF9934",
"4#	c #D29D35",
"5#	c #DEB335",
"6#	c #D4B13A",
"7#	c #687865",
"8#	c #9EB2BF",
"9#	c #87A7C1",
"0#	c #354653",
"a#	c #131211",
"b#	c #121212",
"c#	c #11110E",
"d#	c #49532F",
"e#	c #576238",
"f#	c #5C673A",
"g#	c #646F3F",
"h#	c #74814A",
"i#	c #73804C",
"j#	c #616D3F",
"k#	c #586338",
"l#	c #636030",
"m#	c #B9933C",
"n#	c #D2A541",
"o#	c #DBB143",
"p#	c #E1C249",
"q#	c #E3D25F",
"r#	c #E4D55E",
"s#	c #D2A036",
"t#	c #E1B337",
"u#	c #D2AA3A",
"v#	c #5F6C61",
"w#	c #7A98AF",
"x#	c #5D8DB5",
"y#	c #263F53",
"z#	c #131210",
"A#	c #0E0E0E",
"B#	c #1C1F15",
"C#	c #353C22",
"D#	c #4D5631",
"E#	c #5A6539",
"F#	c #5C673B",
"G#	c #5E6A3C",
"H#	c #5E693C",
"I#	c #5B653A",
"J#	c #676733",
"K#	c #C7B752",
"L#	c #E1CE5C",
"M#	c #E3D05D",
"N#	c #E3D15F",
"O#	c #E0CF5F",
"P#	c #E1C448",
"Q#	c #D19A34",
"R#	c #DEAF38",
"S#	c #E2BE3B",
"T#	c #DEB736",
"U#	c #AE8D43",
"V#	c #5F6967",
"W#	c #224B6B",
"X#	c #0F2232",
"Y#	c #0C0B0A",
"Z#	c #151515",
"`#	c #151614",
" $	c #262A19",
".$	c #47502D",
"+$	c #566036",
"@$	c #46502D",
"#$	c #63612C",
"$$	c #C9AE3B",
"%$	c #E3C240",
"&$	c #DBB041",
"*$	c #D2A33D",
"=$	c #DDAE37",
"-$	c #E0B736",
";$	c #E1BD3C",
">$	c #E2CA51",
",$	c #E5C43E",
"'$	c #E6C235",
")$	c #E1B437",
"!$	c #D9AC38",
"~$	c #B2983A",
"{$	c #494528",
"]$	c #0E1114",
"^$	c #100F0F",
"/$	c #161616",
"($	c #1B1B1B",
"_$	c #131413",
":$	c #1A1C12",
"<$	c #363D23",
"[$	c #4B5430",
"}$	c #454E2C",
"|$	c #333920",
"1$	c #5C5023",
"2$	c #B98C31",
"3$	c #D19B34",
"4$	c #E0B535",
"5$	c #DDAE36",
"6$	c #D5A63C",
"7$	c #E0B538",
"8$	c #E3B936",
"9$	c #CDA132",
"0$	c #594517",
"a$	c #100F0E",
"b$	c #181818",
"c$	c #0E0E0D",
"d$	c #1D1E0E",
"e$	c #31341C",
"f$	c #383F24",
"g$	c #48512E",
"h$	c #434B2B",
"i$	c #323820",
"j$	c #3D391D",
"k$	c #906E2A",
"l$	c #C79433",
"m$	c #D19C34",
"n$	c #DCAB36",
"o$	c #E0B536",
"p$	c #E0B735",
"q$	c #D39D35",
"r$	c #E4BD36",
"s$	c #C18F31",
"t$	c #533D17",
"u$	c #10100F",
"v$	c #0B0B0A",
"w$	c #574915",
"x$	c #6C5E21",
"y$	c #34371C",
"z$	c #31361F",
"A$	c #31371F",
"B$	c #2F341E",
"C$	c #2A2E1A",
"D$	c #4A401E",
"E$	c #AD822F",
"F$	c #D8A336",
"G$	c #DCB035",
"H$	c #DEB435",
"I$	c #DDB040",
"J$	c #DEB23E",
"K$	c #E1BB37",
"L$	c #E2BE35",
"M$	c #E1B137",
"N$	c #DDA937",
"O$	c #D49D35",
"P$	c #BE8C30",
"Q$	c #533E16",
"R$	c #151514",
"S$	c #070706",
"T$	c #322809",
"U$	c #443B16",
"V$	c #2E301A",
"W$	c #282D1A",
"X$	c #292D1A",
"Y$	c #3E3A1C",
"Z$	c #91702A",
"`$	c #C39032",
" %	c #D29C34",
".%	c #D3A336",
"+%	c #D2A23C",
"@%	c #CFA03E",
"#%	c #E3CF61",
"$%	c #E3CD5A",
"%%	c #E4C33E",
"&%	c #DDAB37",
"*%	c #DFAB38",
"=%	c #CCA032",
"-%	c #5A4818",
";%	c #1D1D1C",
">%	c #202020",
",%	c #111111",
"'%	c #080808",
")%	c #060606",
"!%	c #000102",
"~%	c #443312",
"{%	c #675422",
"]%	c #36351B",
"^%	c #30331B",
"/%	c #47421E",
"(%	c #907429",
"_%	c #CFA134",
":%	c #DDAC39",
"<%	c #DEB23F",
"[%	c #E3C13E",
"}%	c #E2C23F",
"|%	c #E1CD59",
"1%	c #E1D060",
"2%	c #DDB042",
"3%	c #DDAF40",
"4%	c #DAA938",
"5%	c #D59E36",
"6%	c #DDA838",
"7%	c #DFAD38",
"8%	c #CEAA31",
"9%	c #5A4B18",
"0%	c #1D1D1D",
"a%	c #0A0A0A",
"b%	c #040404",
"c%	c #000005",
"d%	c #654C18",
"e%	c #B18C2E",
"f%	c #967D29",
"g%	c #958128",
"h%	c #A48E2B",
"i%	c #D9B633",
"j%	c #E3CB56",
"k%	c #E1CB56",
"l%	c #E2C03D",
"m%	c #E2C240",
"n%	c #D09834",
"o%	c #DDAD37",
"p%	c #E0B037",
"q%	c #D5A934",
"r%	c #977926",
"s%	c #3B3117",
"t%	c #1A1919",
"u%	c #141414",
"v%	c #010304",
"w%	c #020304",
"x%	c #070708",
"y%	c #000206",
"z%	c #3F320F",
"A%	c #9B7F24",
"B%	c #DAB534",
"C%	c #DFBA35",
"D%	c #DEBA34",
"E%	c #E1BA38",
"F%	c #DEB341",
"G%	c #DBAF43",
"H%	c #D2A43F",
"I%	c #DEAE37",
"J%	c #C9A430",
"K%	c #5B4718",
"L%	c #1A1917",
"M%	c #191918",
"N%	c #463612",
"O%	c #362B0D",
"P%	c #221709",
"Q%	c #412C11",
"R%	c #352512",
"S%	c #5F4F1A",
"T%	c #D5A734",
"U%	c #CF9A34",
"V%	c #D39F35",
"W%	c #BF8F30",
"X%	c #674A1A",
"Y%	c #45321B",
"Z%	c #3D2B17",
"`%	c #201A10",
" &	c #9A8225",
".&	c #957E22",
"+&	c #5B4715",
"@&	c #64441B",
"#&	c #523A1C",
"$&	c #5C4721",
"%&	c #C79233",
"&&	c #D3A134",
"*&	c #CD9E33",
"=&	c #805D1F",
"-&	c #68471E",
";&	c #5B3D19",
">&	c #322516",
",&	c #9F8629",
"'&	c #D8B532",
")&	c #A88B2B",
"!&	c #6C5322",
"~&	c #664C21",
"{&	c #826027",
"]&	c #C68F33",
"^&	c #CF9735",
"/&	c #E6C335",
"(&	c #D49E35",
"_&	c #E0B137",
":&	c #D1AB33",
"<&	c #846B25",
"[&	c #5C4821",
"}&	c #5B4620",
"|&	c #5E4B20",
"1&	c #AE8C2E",
"2&	c #DEB136",
"3&	c #D6A736",
"4&	c #C49233",
"5&	c #C08F32",
"6&	c #C69532",
"7&	c #DCAB37",
"8&	c #DBA737",
"9&	c #DDAA37",
"0&	c #E3B836",
"a&	c #E4BB35",
"b&	c #C59132",
"c&	c #C49032",
"d&	c #D0A134",
"e&	c #D8B333",
"f&	c #E0BD34",
"g&	c #DFAD37",
"h&	c #DCA838",
"i&	c #E5BD36",
"  . + @ # $ % & * = - ; > , ' ) ! ~ { ] ] ^ / ( _ : < [ * * } | ",
"1 2 3 4 5 6 7 8 9 0 a b c d e f g h i j k l m < & n o p q q r s ",
"t u v w x y z A B C D E F G H I J K L M N O & P Q R { R R S T U ",
"V W X Q Q Y S Z `  ...+.@.#.$.%.&.*.=.-.;.>.,.R R '.).o n !.~.{.",
"S '.].z ^.n V /.(._.:.+.<.[.}.}.|.1.%.2.3.4.).5.6.7.8.v W !.n 9.",
"0.0.a.l b.c.< d.e.f.g.h.i.%.j.k.:.1.l.m.n.o.p.q.r.s.p 0.0.q t.u.",
"v.w.w x.O V P y.z.A.B.C.D.E.F.1.G.H.I.J.K.L.s.a.y.M.q q q a.o 9.",
"N.n 9.O.P.Q.].].R.S.T.U.V.W.X.Y.Z.`. +.+++@+^ Q X !.#+$+%+$+!.&+",
"*+=+{ -+;+>+R '.,+'+)+!+~+{+]+^+/+(+_+:+<+[+}+|+V !.X Q S S S S ",
"1+2+3+4+5+6+7+!.8+9+0+a+b+c+d+e+f+g+h+i+j+k+l+7 m+n+].3+].S q q ",
"o+p+{ q+r+b.s+b.t+9+u+v+w+x+y+z+A+B+C+D+E+F+=+G+H+I+q p 6.v w.|+",
"^ J+).K+O L+M+r+7.N+O+P+Q+R+S+T+U+V+W+X+Y+Z+`+Z  @.@* V V W +@@@",
"9.n ~.( _ M+#@$@%@&@*@=@-@;@>@,@'@)@!@~@{@]@^@/@(@O V X Q z u._@",
":@s+L+< V <@[@[@}@|@1@2@3@4@5@6@7@8@9@0@a@b@c@d@e@f@g@=+R S a.h@",
"_ s+V i@g@=+J+j@k@l@m@n@o@p@q@r@s@t@u@v@w@x@y@z@A@B@C@D@6.!.* E@",
"N.F@G@H@I@H@J@K@< L@M@N@O@P@Q@R@S@T@U@V@W@X@Y@Z@`@ #.#+#s+L+( [ ",
"*+# @###$#%#V N.&#*#=#-#;#>#,#'#)#!#u@~#{#]#^#/#(#_#:#L+( .@<#[#",
"}#|#1#2#3#s+4#5#6#7#8#9#0#a#b#c#'#d#e#f#g#h#i#j#k#l#m#n#o#p#q#r#",
"t s#< s+< V <@t#u#v#w#x#y#z#A#A#B#C#D#E#F#G#H#I#S@J#K#L#M#N#O#P#",
"Q#[ & n R#S#=+R T#U#V#W#X#Y#A#Z#`# $.$!#u@u@E#+$@$#$$$%$[#&$*$.@",
"=$-$).p ;$>$,$'$)$!$~${$]$^$/$($_$:$<$[$k#T@S@}$|$1$2$[ [ 3$#+n ",
"4$5$7+V +#6$7${ ^ 8$9$0$a$/$($b$c$d$e$f$)#g$h$i$j$k$l$m$#+n$o$p$",
"w.q$!.v.V s.r$r$~ n s$t$u$b$b$b#v$w$x$y$z$A$B$C$D$E$F$G$H$o$n$#+",
"I$J$K$L$S z r$M$N$O$P$Q$R$($/$A#S$T$U$V$W$W$X$Y$Z$`$ %$+%+.%+%@%",
"#%$%%%'.Q o &%*%$@[+=%-%;%>%,%'%)%!%~%{%]%^%/%(%_%:%<%[#[%}%|%1%",
"2%3%4%V m$x.5%6%7%8$8%9%;%0%a%b%'%c%d%e%f%g%h%i%R >+j%M#k%l%`+m%",
"< n%b.M+V 7+o%[@p%q%r%s%t%u%v%w%x%y%z%A%B%C%D%q q E%F%G%H%+#v.v.",
"[ V n I%Q Y ).p ).J%K%L%M%u$N%O%P%Q%R%S%T%n V * * [ < ( _ L+U%[ ",
"S '.J+z Q X W V V%W%X%Y%Z%`% &.&+&@&#&$&%&: _ _ _ _ _ ( < &&y.S ",
"0.0.a.6.7.x.m #@&%*&=&-&;&>&,&'&)&!&~&{&]&_ ^&c.c.c.m n 5$Q /&{ ",
"v.v.v.(&K+9.9._&8$:&<&[&}&|&1&2&3&4&5&6&* !.7+9.7&8&9&0&a&q a.5$",
"_ _ ( / ^ ].].z ^.>.b&c&d&e&f&^ g&h&9.).0.'.R ].i&[@*%_@l+V%[ < "};
