/* XPM */
static char * p_up_xpm[] = {
"32 32 621 2",
"  	c #E0B640",
". 	c #E5C641",
"+ 	c #E4D256",
"@ 	c #E5C53F",
"# 	c #E5C43F",
"$ 	c #E1C957",
"% 	c #DCB042",
"& 	c #D29E35",
"* 	c #D09C34",
"= 	c #D4A436",
"- 	c #E3C03C",
"; 	c #E7C537",
"> 	c #E6C435",
", 	c #E2C135",
"' 	c #E3BC36",
") 	c #DFAE38",
"! 	c #DAA838",
"~ 	c #DAAC37",
"{ 	c #DFBC35",
"] 	c #E0C035",
"^ 	c #E3C235",
"/ 	c #E4BD35",
"( 	c #DBA836",
"_ 	c #CE9734",
": 	c #CC9434",
"< 	c #CE9634",
"[ 	c #CF9834",
"} 	c #D09B34",
"| 	c #D09C36",
"1 	c #D09F3E",
"2 	c #E2CA57",
"3 	c #E1C03E",
"4 	c #E0BC3C",
"5 	c #DDAF38",
"6 	c #DBAA38",
"7 	c #D7A83D",
"8 	c #DEB038",
"9 	c #E2BB37",
"0 	c #E2C03E",
"a 	c #E2C23F",
"b 	c #E3CD4E",
"c 	c #E0C03C",
"d 	c #D5B435",
"e 	c #A79235",
"f 	c #C7A43C",
"g 	c #D5AA39",
"h 	c #A08335",
"i 	c #8E7C34",
"j 	c #918133",
"k 	c #928333",
"l 	c #B79D34",
"m 	c #D9AA36",
"n 	c #D29B35",
"o 	c #DBA936",
"p 	c #DEAF36",
"q 	c #E1BA35",
"r 	c #E2BC35",
"s 	c #E2BE3C",
"t 	c #E0C657",
"u 	c #DAAE41",
"v 	c #D3A136",
"w 	c #D3A034",
"x 	c #D4A035",
"y 	c #D5A235",
"z 	c #DDAD36",
"A 	c #E4BE35",
"B 	c #E6C63B",
"C 	c #E4CC51",
"D 	c #E3C23E",
"E 	c #CFB13C",
"F 	c #978137",
"G 	c #7D6D3E",
"H 	c #344241",
"I 	c #72704A",
"J 	c #867B44",
"K 	c #364340",
"L 	c #00263F",
"M 	c #00273F",
"N 	c #002B44",
"O 	c #57523B",
"P 	c #A98133",
"Q 	c #DBAC35",
"R 	c #E2BB35",
"S 	c #E5C035",
"T 	c #E6C135",
"U 	c #E3BD35",
"V 	c #E1BA37",
"W 	c #DDB341",
"X 	c #D29E34",
"Y 	c #D39E34",
"Z 	c #DCAC35",
"` 	c #E4BC35",
" .	c #E2BB36",
"..	c #DBAF3E",
"+.	c #D2A036",
"@.	c #AE8633",
"#.	c #444034",
"$.	c #133048",
"%.	c #0B304C",
"&.	c #12344D",
"*.	c #15364C",
"=.	c #082E4C",
"-.	c #082F4C",
";.	c #093455",
">.	c #183043",
",.	c #876F32",
"'.	c #DAB435",
").	c #E3BE35",
"!.	c #E2BA35",
"~.	c #D39F34",
"{.	c #D29D34",
"].	c #D29B34",
"^.	c #E5C135",
"/.	c #DEAF37",
"(.	c #CF9A34",
"_.	c #C28F34",
":.	c #836832",
"<.	c #2B3134",
"[.	c #072C49",
"}.	c #072A45",
"|.	c #072943",
"1.	c #072944",
"2.	c #0E283D",
"3.	c #615832",
"4.	c #BEA234",
"5.	c #DFB935",
"6.	c #DCAC36",
"7.	c #D5A135",
"8.	c #D4A134",
"9.	c #DDAC37",
"0.	c #E2BD35",
"a.	c #E1B935",
"b.	c #DBAB36",
"c.	c #D19A35",
"d.	c #CF9835",
"e.	c #D19C34",
"f.	c #D29F34",
"g.	c #BB9335",
"h.	c #3F4234",
"i.	c #052842",
"j.	c #083150",
"k.	c #062842",
"l.	c #06243C",
"m.	c #06253D",
"n.	c #072B46",
"o.	c #072842",
"p.	c #002539",
"q.	c #8A6F32",
"r.	c #CFA034",
"s.	c #D5A335",
"t.	c #DCAD36",
"u.	c #E4BC36",
"v.	c #D19D34",
"w.	c #D4A034",
"x.	c #D29C35",
"y.	c #D09934",
"z.	c #C2A234",
"A.	c #3D4237",
"B.	c #062F4F",
"C.	c #083557",
"D.	c #093658",
"E.	c #08304F",
"F.	c #082E4B",
"G.	c #082F4D",
"H.	c #083251",
"I.	c #083253",
"J.	c #002943",
"K.	c #8E7734",
"L.	c #DBB535",
"M.	c #E0B835",
"N.	c #E1B835",
"O.	c #D19E34",
"P.	c #DDAC38",
"Q.	c #DEB13D",
"R.	c #E2BC37",
"S.	c #E6C235",
"T.	c #E2B537",
"U.	c #BF9836",
"V.	c #3C3E36",
"W.	c #062C49",
"X.	c #093557",
"Y.	c #093353",
"Z.	c #08304E",
"`.	c #082F4E",
" +	c #002942",
".+	c #938033",
"++	c #DCB635",
"@+	c #D4A234",
"#+	c #D4A334",
"$+	c #D39E35",
"%+	c #E5C137",
"&+	c #E5C33C",
"*+	c #E3CB54",
"=+	c #E5C33D",
"-+	c #E2B835",
";+	c #BF9735",
">+	c #3A3B36",
",+	c #062C48",
"'+	c #083252",
")+	c #093354",
"!+	c #083354",
"~+	c #002B45",
"{+	c #8C7334",
"]+	c #CE9C34",
"^+	c #E4CF57",
"/+	c #E6C73C",
"(+	c #E7C435",
"_+	c #E5BF37",
":+	c #E0B53E",
"<+	c #DDAD39",
"[+	c #DAA936",
"}+	c #BB9235",
"|+	c #3A3C35",
"1+	c #052844",
"2+	c #093454",
"3+	c #09385C",
"4+	c #083353",
"5+	c #00243C",
"6+	c #8E7534",
"7+	c #D7AB38",
"8+	c #E1BD3E",
"9+	c #E3BE37",
"0+	c #E2BB41",
"a+	c #E6C337",
"b+	c #E0B136",
"c+	c #DAA636",
"d+	c #CF9734",
"e+	c #DAA536",
"f+	c #C39836",
"g+	c #575033",
"h+	c #112637",
"i+	c #093659",
"j+	c #08273F",
"k+	c #2A3834",
"l+	c #A18E34",
"m+	c #E0BF3B",
"n+	c #E4CB51",
"o+	c #D4A135",
"p+	c #E5BF35",
"q+	c #DBA937",
"r+	c #CD9534",
"s+	c #D09935",
"t+	c #DEAA38",
"u+	c #DBA838",
"v+	c #AA8635",
"w+	c #3B3A35",
"x+	c #093456",
"y+	c #083151",
"z+	c #083050",
"A+	c #072D4B",
"B+	c #132B3C",
"C+	c #80783F",
"D+	c #D3B53C",
"E+	c #E1BB36",
"F+	c #D29F36",
"G+	c #DAA736",
"H+	c #DCA837",
"I+	c #DBA537",
"J+	c #B48834",
"K+	c #534732",
"L+	c #1F3039",
"M+	c #143145",
"N+	c #0F3048",
"O+	c #0D2F48",
"P+	c #0E2F49",
"Q+	c #0F334E",
"R+	c #123852",
"S+	c #183141",
"T+	c #323733",
"U+	c #8B6F35",
"V+	c #CB9935",
"W+	c #D19A34",
"X+	c #E0AE38",
"Y+	c #D09835",
"Z+	c #DBAA36",
"`+	c #E0AF37",
" @	c #DAA637",
".@	c #C39034",
"+@	c #957834",
"@@	c #545935",
"#@	c #384531",
"$@	c #2A3629",
"%@	c #263126",
"&@	c #273429",
"*@	c #314031",
"=@	c #424F34",
"-@	c #766834",
";@	c #B28634",
">@	c #DEB039",
",@	c #E1BE3D",
"'@	c #DCAA37",
")@	c #DBAD37",
"!@	c #DFB435",
"~@	c #D19C35",
"{@	c #CB9434",
"]@	c #B88E35",
"^@	c #827436",
"/@	c #51572F",
"(@	c #444D2B",
"_@	c #434B2B",
":@	c #485030",
"<@	c #484F2D",
"[@	c #434A2A",
"}@	c #474F2C",
"|@	c #676332",
"1@	c #A38637",
"2@	c #D3AB3E",
"3@	c #E1BF40",
"4@	c #E4C43F",
"5@	c #E4CB4E",
"6@	c #E1BE3C",
"7@	c #CF9935",
"8@	c #DCAD37",
"9@	c #E2BD3B",
"0@	c #E5C43D",
"a@	c #E4CE54",
"b@	c #E0B834",
"c@	c #D2A034",
"d@	c #C09436",
"e@	c #827536",
"f@	c #50562F",
"g@	c #474F2D",
"h@	c #556037",
"i@	c #6D7A4A",
"j@	c #96A774",
"k@	c #96A062",
"l@	c #6E7741",
"m@	c #545F36",
"n@	c #4A542F",
"o@	c #48502D",
"p@	c #666734",
"q@	c #B6AC50",
"r@	c #E1D360",
"s@	c #E3D15A",
"t@	c #E2BF3E",
"u@	c #DCAF3C",
"v@	c #D19E36",
"w@	c #DDB13D",
"x@	c #DBA938",
"y@	c #C8A937",
"z@	c #676732",
"A@	c #454E2C",
"B@	c #535E35",
"C@	c #6E7B4A",
"D@	c #9BAC75",
"E@	c #B4C890",
"F@	c #B0C286",
"G@	c #84925B",
"H@	c #5F6B3C",
"I@	c #566137",
"J@	c #4A5330",
"K@	c #48502C",
"L@	c #A49336",
"M@	c #DDBC3E",
"N@	c #D29E36",
"O@	c #DBB03F",
"P@	c #E3CE57",
"Q@	c #E1BE3E",
"R@	c #DBAF3D",
"S@	c #CF9934",
"T@	c #D29D35",
"U@	c #DEB335",
"V@	c #CAAB34",
"W@	c #615E2C",
"X@	c #444C2C",
"Y@	c #586238",
"Z@	c #73804A",
"`@	c #9DA866",
" #	c #A8B36E",
".#	c #91A067",
"+#	c #707E4D",
"@#	c #5D683B",
"##	c #596439",
"$#	c #4C5631",
"%#	c #434A29",
"&#	c #96782F",
"*#	c #CC9934",
"=#	c #D19E37",
"-#	c #D0A23F",
";#	c #D2A541",
">#	c #DBB143",
",#	c #E1C249",
"'#	c #E3D25F",
")#	c #E4D55E",
"!#	c #E1B337",
"~#	c #C39A33",
"{#	c #595126",
"]#	c #404829",
"^#	c #4C5530",
"/#	c #5F6A3C",
"(#	c #737B42",
"_#	c #777E43",
":#	c #68723F",
"<#	c #5C673A",
"[#	c #596338",
"}#	c #505A33",
"|#	c #454D2C",
"1#	c #3E4425",
"2#	c #94742C",
"3#	c #E1BD3D",
"4#	c #E1CB56",
"5#	c #E1CE5C",
"6#	c #E3D05D",
"7#	c #E3D15F",
"8#	c #E0CF5F",
"9#	c #E1C448",
"0#	c #DEAF38",
"a#	c #E2BE3B",
"b#	c #E2B935",
"c#	c #CB9B34",
"d#	c #94752B",
"e#	c #4A4723",
"f#	c #48522E",
"g#	c #4B5530",
"h#	c #4B5430",
"i#	c #4A532F",
"j#	c #444D2C",
"k#	c #3D4225",
"l#	c #776726",
"m#	c #C6A630",
"n#	c #E0BA35",
"o#	c #E5C037",
"p#	c #E3C240",
"q#	c #DBB041",
"r#	c #D2A33D",
"s#	c #DDAE37",
"t#	c #E0B736",
"u#	c #E1BD3C",
"v#	c #E2CA51",
"w#	c #E5C43E",
"x#	c #E1B437",
"y#	c #DFB037",
"z#	c #C2A031",
"A#	c #5A5220",
"B#	c #333920",
"C#	c #353C22",
"D#	c #3D4527",
"E#	c #414929",
"F#	c #41492A",
"G#	c #394024",
"H#	c #343A21",
"I#	c #3B3D1E",
"J#	c #9A8629",
"K#	c #E0BD34",
"L#	c #E1B536",
"M#	c #DEAD37",
"N#	c #D19B34",
"O#	c #E0B535",
"P#	c #DDAE36",
"Q#	c #D5A63C",
"R#	c #E0B538",
"S#	c #E3B936",
"T#	c #CFA434",
"U#	c #90722A",
"V#	c #39371C",
"W#	c #282D1A",
"X#	c #31371F",
"Y#	c #343B22",
"Z#	c #353B22",
"`#	c #2C311C",
" $	c #2A2E1A",
".$	c #6C5F23",
"+$	c #BFA02F",
"@$	c #E0BB34",
"#$	c #DCAB36",
"$$	c #E0B536",
"%$	c #E0B735",
"&$	c #D39D35",
"*$	c #E4BD36",
"=$	c #E0B237",
"-$	c #B78730",
";$	c #3C3115",
">$	c #171A10",
",$	c #191C11",
"'$	c #1C1E14",
")$	c #1C1F16",
"!$	c #1C1F15",
"~$	c #222113",
"{$	c #8C7027",
"]$	c #D6A235",
"^$	c #DCB035",
"/$	c #DEB435",
"($	c #DDB040",
"_$	c #DEB23E",
":$	c #E1BB37",
"<$	c #E2BE35",
"[$	c #E1B137",
"}$	c #DDA937",
"|$	c #D49D35",
"1$	c #BE8B30",
"2$	c #79591E",
"3$	c #1E1709",
"4$	c #070807",
"5$	c #090908",
"6$	c #0C0C0C",
"7$	c #111110",
"8$	c #161616",
"9$	c #1C1C1C",
"0$	c #181715",
"a$	c #543F19",
"b$	c #A67A2A",
"c$	c #CA9333",
"d$	c #D3A336",
"e$	c #D2A23C",
"f$	c #CFA03E",
"g$	c #E3CF61",
"h$	c #E3CD5A",
"i$	c #E4C33E",
"j$	c #DDAB37",
"k$	c #DFAB38",
"l$	c #DEAC37",
"m$	c #B9912D",
"n$	c #44350E",
"o$	c #070706",
"p$	c #080808",
"q$	c #0F0F0F",
"r$	c #1A1A1A",
"s$	c #272727",
"t$	c #1A150E",
"u$	c #836221",
"v$	c #CB9833",
"w$	c #DDAC39",
"x$	c #DEB23F",
"y$	c #E3C13E",
"z$	c #E1CD59",
"A$	c #E1D060",
"B$	c #DDB042",
"C$	c #DDAF40",
"D$	c #DAA938",
"E$	c #D59E36",
"F$	c #DDA838",
"G$	c #DFAD38",
"H$	c #E4BA36",
"I$	c #BE9D2D",
"J$	c #43370D",
"K$	c #060706",
"L$	c #070707",
"M$	c #050505",
"N$	c #282828",
"O$	c #19160E",
"P$	c #8D7521",
"Q$	c #DDB834",
"R$	c #E3CB56",
"S$	c #E2C03D",
"T$	c #E2C13E",
"U$	c #E2C240",
"V$	c #D09834",
"W$	c #DDAD37",
"X$	c #E0B037",
"Y$	c #C69B31",
"Z$	c #70551B",
"`$	c #161007",
" %	c #060606",
".%	c #030303",
"+%	c #242424",
"@%	c #16140C",
"#%	c #8D7621",
"$%	c #DEB934",
"%%	c #E1BA38",
"&%	c #DEB341",
"*%	c #DBAF43",
"=%	c #D2A43F",
"-%	c #DEAE37",
";%	c #B6852E",
">%	c #614917",
",%	c #181207",
"'%	c #000101",
")%	c #040404",
"!%	c #161515",
"~%	c #1A1919",
"{%	c #141312",
"]%	c #3E3013",
"^%	c #9C7626",
"/%	c #CF9C34",
"(%	c #C8A230",
"_%	c #443A12",
":%	c #000206",
"<%	c #050606",
"[%	c #090806",
"}%	c #271B0E",
"|%	c #3A2915",
"1%	c #231A0D",
"2%	c #7B5A20",
"3%	c #CB9433",
"4%	c #D3A134",
"5%	c #D1A234",
"6%	c #7A6323",
"7%	c #614F1E",
"8%	c #5E4D1D",
"9%	c #261F0F",
"0%	c #412B11",
"a%	c #63431C",
"b%	c #362612",
"c%	c #7D5B21",
"d%	c #CE9534",
"e%	c #CF9735",
"f%	c #E6C335",
"g%	c #D49E35",
"h%	c #E0B137",
"i%	c #E0B436",
"j%	c #C69932",
"k%	c #C9A033",
"l%	c #C59D32",
"m%	c #765E24",
"n%	c #503E1D",
"o%	c #53411F",
"p%	c #52411E",
"q%	c #977429",
"r%	c #DCAB37",
"s%	c #DBA737",
"t%	c #DDAA37",
"u%	c #E3B836",
"v%	c #E4BB35",
"w%	c #D39F35",
"x%	c #D5A635",
"y%	c #D09F35",
"z%	c #D1A335",
"A%	c #D6B233",
"B%	c #DCB934",
"C%	c #E5BD36",
"D%	c #DDAC36",
"  . + @ # $ % & * = - ; > , ' ) ! ~ { ] ^ / ( _ : < [ } * * | 1 ",
"2 3 4 5 6 7 8 9 0 a b c d e f g h i j k l m n [ & o p q r r s t ",
"u v w x y z A B C D E F G H I J K L M N O P * Q R S T S S U V W ",
"X Y Z R R ` U  ...+.@.#.$.%.&.*.%.=.-.;.>.,.'.S S ).!.p o ~.{.].",
"U ).^.A /.o X (._ _.:.<.[.=.}.|.|.1.[.=.2.3.4.5.6.7.8.w Y ~.o 9.",
"0.0.a.b.c.d.[ e.f.g.h.i.j.j.k.l.l.m.n.n.o.p.q.r.s.t.q 0.0.r ' u.",
"v.w.x x.y.X Q a.a.z.A.B.C.D.E.F.E.G.=.H.I.J.K.L.M.N.r r r a.p 9.",
"O.o 9.P.Q.R.^.S.T.U.V.W.j.X.H.j.;.Y.Z.`.E. +.+++Z ~.f.@+#+@+~.$+",
"D %+T &+*+=+S ).-+;+>+,+E.X.'+)+!+X.'+G.H.~+{+]+X ~.Z R U U U U ",
"^+/+(+_+:+<+[+~.y }+|+1+G.2+j.Z.D.3+4+G.[.5+6+7+8+9+^.(+^.U r r ",
"0+a+T b+c+c.d+c.e+f+g+h+-.H.E.j.X.i+'+G.j+k+l+m+n+- r q 6.w w.o+",
"/ p+!.q+y.r+s+c+t+u+v+w+Z.x+y+;.H.j.z+A+B+C+D+E+..F+* X X Y G+H+",
"9.o {._ : s+e+t+t+I+J+K+L+M+N+O+P+Q+R+S+T+U+V+} W+y.X Z R A u.X+",
"Y+d+r+[ X Z+`+`+ @c..@+@@@#@$@%@%@&@*@=@-@;@_ X o >@,@%+S U a.'@",
": d+X )@,@%+p+!@~@{@]@^@/@(@_@:@<@[@[@}@|@1@2@3@4@# 5@6@6.~.* 7@",
"O.8@9@0@a@0@b@c@[ d@e@f@g@h@i@j@k@l@m@n@o@p@q@r@s@t@u@v@d+r+_ } ",
"D # C t@w@x@X O.6.y@z@A@B@C@D@E@F@G@H@I@J@K@L@M@..N@_ r+_ F+O@3@",
"P@Q@R@N@S@d+T@U@` V@W@X@Y@Z@`@ #.#+#@###$#%#&#*#x.=#-#;#>#,#'#)#",
"u +.[ d+[ X Z+!#!#~#{#]#^#/#(#_#:#<#[#}#|#1#2#]+Z 3#4#5#6#7#8#9#",
"W+} & o 0#a#%+S b#c#d#e#]#f#^#^#g#h#i#j#k#l#m#n#/ o#D p#3@q#r#F+",
"s#t#!.q u#v#w#S.x#y#z#A#B#C#D#E#F#]#G#H#I#J#K#L#M#o X } } N#f.o ",
"O#P#[+X v@Q#R#T / S#T#U#V#W#X#Y#Z#H#`# $.$+$@$U@T@d.S@e.f.#$$$%$",
"w.&$~.v.X t.*$*$=$o n -$;$>$,$'$)$)$!$~${$o w * r+< ]$^$/$$$#$f.",
"($_$:$<$U A *$[$}$|$1$2$3$4$5$6$7$8$9$0$a$b$c$: _ [ e.@+#+d$e$f$",
"g$h$i$).R p j$k$t+l$m$n$o$p$p$p$q$r$s$9$t$u$v$X q+w$x$3@y$a z$A$",
"B$C$D$X e.x.E$F$G$H$I$J$K$L$M$L$q$r$N$9$O$P$Q$U S =+R$6#4#S$T$U$",
"[ V$c.s+X [+W$`+X$!#Y$Z$`$ %.% %q$r$+%r$@%#%$%U r %%&%*%=%v@v.v.",
"} X o -%R ` !.q q /$* ;%>%,%'%)%6$!%~%{%]%^%/%* * } [ _ : r+(.} ",
"U ).p+A R Z Y X $+T@V$} (%_%:%<%[%}%|%1%2%3%: : : : : _ [ 4%M.U ",
"0.0.a.6.7.x.n e+j$9.j$H+5%6%7%8%9%0%a%b%c%d%e%d.d.d.n o P#R f%T ",
"v.v.v.g%q+9.9.h%S#N.i%( T@j%k%l%m%n%o%p%q%x [+9.r%s%t%u%v%r a.P#",
": : _ ( / ^.^.A /.w%} W+o !.S / x%y%z%A%B%).S ^.C%`+k$X+D%w%} [ "};
